<svg xmlns="http://www.w3.org/2000/svg" viewBox="0 0 11.09 22.4"><defs><style>.cls-1{fill:#fff;}</style></defs><title>Ресурс 1</title><g id="Слой_2" data-name="Слой 2"><g id="Layer_1" data-name="Layer 1"><path class="cls-1" d="M5.35,22.33a.32.32,0,0,0,.39,0,8.84,8.84,0,0,0,2.49-3.07,8.82,8.82,0,0,0,.89-3.85v-3L11,9.91a.32.32,0,0,0,.07-.2V5.51a.32.32,0,0,0-.5-.26L8.7,6.54H8.08l.3-1a.32.32,0,0,0-.31-.41H3a.32.32,0,0,0-.23.09l0,0a.32.32,0,0,0-.05.28l.3,1H2.39L.5,5.24a.32.32,0,0,0-.33,0l-.08.06A.32.32,0,0,0,0,5.5V9.72a.3.3,0,0,0,.07.2L2,12.38v3a8.8,8.8,0,0,0,3.38,6.92ZM9.13,7l1.33-.91v3.5L9.13,11.33ZM3.45,5.74H7.64l-.24.8H3.69ZM.64,9.61V6.11L2,7v4.31Zm2,5.8V7.18H8.48v8.23a8.22,8.22,0,0,1-.78,3.48,3.85,3.85,0,0,0-4.31,0A8.22,8.22,0,0,1,2.61,15.41Zm1.08,4.05a3.21,3.21,0,0,1,3.71,0,8.2,8.2,0,0,1-1.86,2.21A8.26,8.26,0,0,1,3.69,19.46Z"/><path class="cls-1" d="M7.5,14a1.95,1.95,0,1,0-3.9,0h0a1.95,1.95,0,0,0,3.9,0ZM4.24,14a1.31,1.31,0,1,1,1.31,1.31A1.31,1.31,0,0,1,4.24,14Z"/><path class="cls-1" d="M5.51,4.54a.32.32,0,0,0,.32-.32V.32A.32.32,0,0,0,5.51,0a.31.31,0,0,0-.23.09.31.31,0,0,0-.09.23v3.9A.32.32,0,0,0,5.51,4.54Z"/><path class="cls-1" d="M4.58,4.22V2.46a.32.32,0,0,0-.32-.32.32.32,0,0,0-.32.32V4.22a.32.32,0,1,0,.64,0Z"/><path class="cls-1" d="M4.49,1.75a.33.33,0,0,0,.06-.36.32.32,0,0,0-.33-.18.33.33,0,0,0-.28.26.32.32,0,0,0,.54.28Z"/><path class="cls-1" d="M4.14,1.82Z"/><path class="cls-1" d="M4.58.56V.32A.32.32,0,0,0,4.26,0,.31.31,0,0,0,4,.09a.31.31,0,0,0-.09.23V.56a.32.32,0,1,0,.64,0Z"/><path class="cls-1" d="M6.75,2.4a.32.32,0,0,0,.32-.32V.32A.32.32,0,0,0,6.75,0a.31.31,0,0,0-.23.09.31.31,0,0,0-.09.23V2.08A.32.32,0,0,0,6.75,2.4Z"/><path class="cls-1" d="M6.47,2.85a.32.32,0,0,0,.37.47A.32.32,0,0,0,7.06,3,.32.32,0,0,0,6.8,2.7h0A.32.32,0,0,0,6.47,2.85Z"/><path class="cls-1" d="M6.43,4v.24a.32.32,0,1,0,.64,0V4a.32.32,0,0,0-.32-.32A.32.32,0,0,0,6.43,4Z"/></g></g></svg>