<?xml version="1.0" encoding="utf-8"?>
<!-- Generator: Adobe Illustrator 21.1.0, SVG Export Plug-In . SVG Version: 6.00 Build 0)  -->
<svg version="1.1" id="Layer_1" xmlns="http://www.w3.org/2000/svg" xmlns:xlink="http://www.w3.org/1999/xlink" x="0px" y="0px"
	 viewBox="0 0 396.8 396.8" style="enable-background:new 0 0 396.8 396.8;" xml:space="preserve" width="17px">
<style type="text/css">
	.st0{fill:#FFFFFF;}
</style>
<g>
	<g>
		<g>
			<path class="st0" d="M180.3,458.8c2.7,2.1,6.5,2.1,9.2,0c24.4-19.1,44.5-43.8,58.1-71.7c13.6-27.8,20.8-58.9,20.8-89.9v-70.7
				l44.4-57.6c1-1.3,1.6-2.9,1.6-4.6V66c0-2.8-1.5-5.3-4-6.6c-2.5-1.3-5.4-1.1-7.7,0.5l-44.1,30.3l-14.6,0l7.1-24
				c0.7-2.3,0.2-4.7-1.2-6.6c-1.4-1.9-3.6-3-6-3l-118,0c-2,0-3.9,0.8-5.3,2.2c-0.3,0.3-0.5,0.5-0.7,0.8c-1.4,1.9-1.9,4.4-1.2,6.6
				l7.1,24l-14.6,0L67.2,59.8c-2.3-1.6-5.3-1.8-7.7-0.5c-0.7,0.4-1.3,0.8-1.8,1.3c-1.4,1.4-2.2,3.3-2.2,5.3l0,98.4
				c0,1.7,0.5,3.3,1.6,4.6l44.4,57.6l0,70.7c0,31,7.2,62.1,20.8,89.9C135.8,414.9,155.9,439.7,180.3,458.8z M268.5,101.5l31-21.3
				l0,81.6l-31,40.2L268.5,101.5z M136,71.5l97.9,0l-5.5,18.6l-86.8,0L136,71.5z M70.5,161.8l0-81.6l31,21.3V202L70.5,161.8z
				 M116.5,297.2l0-192.1l137,0l0,192.1c0,27.9-6.3,55.9-18.2,81.2c-14.8-10-32.3-15.4-50.3-15.4c-18,0-35.5,5.4-50.3,15.4
				C122.8,353.1,116.5,325.1,116.5,297.2z M141.7,391.8c12.6-8.9,27.7-13.8,43.3-13.8c15.5,0,30.7,4.9,43.3,13.8
				c-11.2,19.5-26,37.1-43.3,51.5C167.7,428.8,152.9,411.3,141.7,391.8z"/>
			<path class="st0" d="M230.5,263.9c0-25.1-20.4-45.5-45.5-45.5c-12.5,0-23.9,5.1-32.2,13.3c-8.2,8.2-13.3,19.6-13.3,32.2l0,0
				c0,25.1,20.4,45.5,45.5,45.5C210,309.4,230.5,288.9,230.5,263.9z M154.5,263.9c0-16.8,13.7-30.5,30.5-30.5
				c16.8,0,30.5,13.7,30.5,30.5c0,8.4-3.4,16-8.9,21.6c-5.5,5.5-13.1,8.9-21.6,8.9C168.1,294.4,154.5,280.7,154.5,263.9z"/>
			<path class="st0" d="M184,43.5c4.1,0,7.5-3.4,7.5-7.5l0-91c0-4.1-3.4-7.5-7.5-7.5c-2.1,0-3.9,0.8-5.3,2.2
				c-1.4,1.4-2.2,3.2-2.2,5.3l0,91C176.5,40.1,179.8,43.5,184,43.5z"/>
			<path class="st0" d="M162.5,36V-5c0-4.1-3.4-7.5-7.5-7.5c-2.1,0-3.9,0.8-5.3,2.2c-1.4,1.4-2.2,3.2-2.2,5.3v41
				c0,4.1,3.4,7.5,7.5,7.5C159.1,43.5,162.5,40.1,162.5,36z"/>
			<path class="st0" d="M160.3-21.6c2.2-2.2,2.8-5.7,1.5-8.5c-1.4-2.9-4.5-4.6-7.7-4.2c-3.2,0.4-5.9,2.9-6.5,6.1
				c-0.6,3.4,1.3,6.9,4.5,8.2C154.8-18.8,158.2-19.5,160.3-21.6z"/>
			<path class="st0" d="M152.1-20C151.6-20.1,152.5-19.8,152.1-20L152.1-20z"/>
			<path class="st0" d="M162.5-49.4l0-5.6c0-4.1-3.4-7.5-7.5-7.5c-2.1,0-3.9,0.8-5.3,2.2c-1.4,1.4-2.2,3.2-2.2,5.3v5.6
				c0,4.1,3.4,7.5,7.5,7.5C159.1-41.9,162.5-45.2,162.5-49.4z"/>
			<path class="st0" d="M213-6.5c4.1,0,7.5-3.4,7.5-7.5v-41c0-4.1-3.4-7.5-7.5-7.5c-2.1,0-3.9,0.8-5.3,2.2c-1.4,1.4-2.2,3.2-2.2,5.3
				l0,41C205.5-9.9,208.8-6.5,213-6.5z"/>
			<path class="st0" d="M206.5,4c-1.6,2.7-1.4,6.2,0.6,8.6c1.9,2.4,5.2,3.3,8.1,2.4c3.1-1,5.2-4,5.1-7.3c-0.1-3.5-2.6-6.5-6-7.2
				c0.1,0,0.2,0,0,0c-0.2,0-0.1,0,0,0C211.3-0.1,208.1,1.3,206.5,4z"/>
			<path class="st0" d="M205.5,30.3l0,5.6c0,4.1,3.4,7.5,7.5,7.5c4.1,0,7.5-3.4,7.5-7.5l0-5.6c0-4.1-3.4-7.5-7.5-7.5
				c-2.1,0-3.9,0.8-5.3,2.2C206.3,26.4,205.5,28.2,205.5,30.3z"/>
		</g>
	</g>
</g>
</svg>
