<svg id="Layer_1" xmlns="http://www.w3.org/2000/svg" viewBox="0 0 396.8 396.8" width="17"><style>.st0{fill:#fff}</style><path class="st0" d="M180.3 458.8c2.7 2.1 6.5 2.1 9.2 0 24.4-19.1 44.5-43.8 58.1-71.7 13.6-27.8 20.8-58.9 20.8-89.9v-70.7l44.4-57.6c1-1.3 1.6-2.9 1.6-4.6V66c0-2.8-1.5-5.3-4-6.6-2.5-1.3-5.4-1.1-7.7.5l-44.1 30.3H244l7.1-24c.7-2.3.2-4.7-1.2-6.6-1.4-1.9-3.6-3-6-3h-118c-2 0-3.9.8-5.3 2.2-.3.3-.5.5-.7.8-1.4 1.9-1.9 4.4-1.2 6.6l7.1 24h-14.6l-44-30.4c-2.3-1.6-5.3-1.8-7.7-.5-.7.4-1.3.8-1.8 1.3-1.4 1.4-2.2 3.3-2.2 5.3v98.4c0 1.7.5 3.3 1.6 4.6l44.4 57.6v70.7c0 31 7.2 62.1 20.8 89.9 13.5 27.8 33.6 52.6 58 71.7zm88.2-357.3l31-21.3v81.6l-31 40.2V101.5zM136 71.5h97.9l-5.5 18.6h-86.8L136 71.5zm-65.5 90.3V80.2l31 21.3V202l-31-40.2zm46 135.4V105.1h137v192.1c0 27.9-6.3 55.9-18.2 81.2-14.8-10-32.3-15.4-50.3-15.4s-35.5 5.4-50.3 15.4c-11.9-25.3-18.2-53.3-18.2-81.2zm25.2 94.6c12.6-8.9 27.7-13.8 43.3-13.8 15.5 0 30.7 4.9 43.3 13.8-11.2 19.5-26 37.1-43.3 51.5-17.3-14.5-32.1-32-43.3-51.5z"/><path class="st0" d="M230.5 263.9c0-25.1-20.4-45.5-45.5-45.5-12.5 0-23.9 5.1-32.2 13.3-8.2 8.2-13.3 19.6-13.3 32.2 0 25.1 20.4 45.5 45.5 45.5 25 0 45.5-20.5 45.5-45.5zm-76 0c0-16.8 13.7-30.5 30.5-30.5s30.5 13.7 30.5 30.5c0 8.4-3.4 16-8.9 21.6-5.5 5.5-13.1 8.9-21.6 8.9-16.9 0-30.5-13.7-30.5-30.5zM184 43.5c4.1 0 7.5-3.4 7.5-7.5v-91c0-4.1-3.4-7.5-7.5-7.5-2.1 0-3.9.8-5.3 2.2-1.4 1.4-2.2 3.2-2.2 5.3v91c0 4.1 3.3 7.5 7.5 7.5zM162.5 36V-5c0-4.1-3.4-7.5-7.5-7.5-2.1 0-3.9.8-5.3 2.2-1.4 1.4-2.2 3.2-2.2 5.3v41c0 4.1 3.4 7.5 7.5 7.5s7.5-3.4 7.5-7.5zm-2.2-57.6c2.2-2.2 2.8-5.7 1.5-8.5-1.4-2.9-4.5-4.6-7.7-4.2-3.2.4-5.9 2.9-6.5 6.1-.6 3.4 1.3 6.9 4.5 8.2 2.7 1.2 6.1.5 8.2-1.6z"/><path class="st0" d="M152.1-20c-.5-.1.4.2 0 0zm10.4-29.4V-55c0-4.1-3.4-7.5-7.5-7.5-2.1 0-3.9.8-5.3 2.2-1.4 1.4-2.2 3.2-2.2 5.3v5.6c0 4.1 3.4 7.5 7.5 7.5s7.5-3.3 7.5-7.5zM213-6.5c4.1 0 7.5-3.4 7.5-7.5v-41c0-4.1-3.4-7.5-7.5-7.5-2.1 0-3.9.8-5.3 2.2-1.4 1.4-2.2 3.2-2.2 5.3v41c0 4.1 3.3 7.5 7.5 7.5zM206.5 4c-1.6 2.7-1.4 6.2.6 8.6 1.9 2.4 5.2 3.3 8.1 2.4 3.1-1 5.2-4 5.1-7.3-.1-3.5-2.6-6.5-6-7.2.1 0 .2 0 0 0s-.1 0 0 0c-3-.6-6.2.8-7.8 3.5zm-1 26.3v5.6c0 4.1 3.4 7.5 7.5 7.5s7.5-3.4 7.5-7.5v-5.6c0-4.1-3.4-7.5-7.5-7.5-2.1 0-3.9.8-5.3 2.2-1.4 1.4-2.2 3.2-2.2 5.3z"/></svg>