<svg xmlns="http://www.w3.org/2000/svg" viewBox="0 0 11.09 22.4"><defs><style>.cls-1{fill:#fff}</style></defs><g id="Слой_2" data-name="Слой 2"><g id="Layer_1" data-name="Layer 1"><path class="cls-1" d="M5.35 22.33a.32.32 0 0 0 .39 0 8.84 8.84 0 0 0 2.49-3.07 8.82 8.82 0 0 0 .89-3.85v-3L11 9.91a.32.32 0 0 0 .07-.2v-4.2a.32.32 0 0 0-.5-.26L8.7 6.54h-.62l.3-1a.32.32 0 0 0-.31-.41H3a.32.32 0 0 0-.23.09.32.32 0 0 0-.05.28l.3 1h-.63L.5 5.24a.32.32 0 0 0-.33 0l-.08.06a.32.32 0 0 0-.09.2v4.22a.3.3 0 0 0 .07.2L2 12.38v3a8.8 8.8 0 0 0 3.38 6.92zM9.13 7l1.33-.91v3.5l-1.33 1.74zM3.45 5.74h4.19l-.24.8H3.69zM.64 9.61v-3.5L2 7v4.31zm2 5.8V7.18h5.84v8.23a8.22 8.22 0 0 1-.78 3.48 3.85 3.85 0 0 0-4.31 0 8.22 8.22 0 0 1-.78-3.48zm1.08 4.05a3.21 3.21 0 0 1 3.71 0 8.2 8.2 0 0 1-1.86 2.21 8.26 8.26 0 0 1-1.88-2.21z"/><path class="cls-1" d="M7.5 14a1.95 1.95 0 1 0-3.9 0 1.95 1.95 0 0 0 3.9 0zm-3.26 0a1.31 1.31 0 1 1 1.31 1.31A1.31 1.31 0 0 1 4.24 14zm1.27-9.46a.32.32 0 0 0 .32-.32V.32A.32.32 0 0 0 5.51 0a.31.31 0 0 0-.23.09.31.31 0 0 0-.09.23v3.9a.32.32 0 0 0 .32.32zm-.93-.32V2.46a.32.32 0 0 0-.32-.32.32.32 0 0 0-.32.32v1.76a.32.32 0 1 0 .64 0zm-.09-2.47a.33.33 0 0 0 .06-.36.32.32 0 0 0-.33-.18.33.33 0 0 0-.28.26.32.32 0 0 0 .54.28zM4.58.56V.32A.32.32 0 0 0 4.26 0 .31.31 0 0 0 4 .09a.31.31 0 0 0-.09.23v.24a.32.32 0 1 0 .64 0zM6.75 2.4a.32.32 0 0 0 .32-.32V.32A.32.32 0 0 0 6.75 0a.31.31 0 0 0-.23.09.31.31 0 0 0-.09.23v1.76a.32.32 0 0 0 .32.32zm-.28.45a.32.32 0 0 0 .37.47.32.32 0 0 0 .22-.32.32.32 0 0 0-.26-.3.32.32 0 0 0-.33.15zM6.43 4v.24a.32.32 0 1 0 .64 0V4a.32.32 0 0 0-.32-.32.32.32 0 0 0-.32.32z"/></g></g></svg>