<svg id="Слой_1" xmlns="http://www.w3.org/2000/svg" viewBox="0 0 1280 1280"><style>.st2{fill:#43bad6}.st8{fill:#dfe9ea}.st9{fill:#0c4c77}.st10{opacity:.59;fill:#c8e1f3}</style><path d="M1064.8 556.8c-.3-.2-.7-.4-1-.5.3.1.6.3 1 .5zm-36.5-1.6c.4-.2.8-.4 1.3-.6-.5.2-.9.4-1.3.6zm1.4-.7c.4-.2.9-.3 1.4-.5-.5.2-1 .4-1.4.5zm33.8 1.6c-.3-.1-.6-.3-.9-.4.3.2.6.3.9.4zm-2.2-.8c.4.1.7.2 1 .3-.3 0-.6-.2-1-.3z" fill="none"/><path d="M1064.8 556.8c-.9-1.5-2.1-2.8-3.4-4 3.2-5.2 6.1-11.1 8.3-17.4 3.2-9.2 7-25.4 1.2-45.1-3.6-12.4-9.9-22.6-16-30.3-3.4-4.3-10.1-4.4-13.7-.2-6.5 7.5-13.3 17.5-17.6 29.7-6.8 19.5-3.9 35.8-1.2 45.1 2 6.8 4.8 12.9 7.9 18.3-.8.7-1.5 1.5-2.1 2.3.4-.2.8-.4 1.3-.6-.4.2-.9.4-1.3.6-2.4 3.1-3.9 6.8-4.2 10.8v.1c-.2 2.6 2.3 3.9 3.8 2.1.6-.7 1.3-1.4 2-2 .6-.5 1.1-1 1.6-1.6 3.6-3.9 9-6.3 14.9-6.1 6.7.2 12.3 3.7 15.4 8.7.5.8 1 1.6 1.5 2.3.1.2.3.4.4.6 1.3 2 3.9 1.1 4.1-1.5v-.1c.4-4.3-.7-8.3-2.9-11.7m-3.2-4.1" fill="#006caf"/><path class="st2" d="M255.5 484c-28.9 0-53.8 10.4-74.6 31.2-20.8 20.8-31.2 45.7-31.2 74.6V779c0 5.6 2.1 10.5 6.3 14.7 3.9 3.9 8.8 5.9 14.7 5.9 5.1 0 10-2 14.7-5.9 3.9-4.8 5.9-9.7 5.9-14.7V674c19.1 14.3 40.5 21.5 64 21.5 29.5 0 54.5-10.3 75-30.8s30.8-45.5 30.8-75c0-29.2-10.3-54.1-30.8-74.6-20.5-20.7-45.5-31.1-74.8-31.1zm45.6 150.8c-12.6 12.6-27.8 19-45.5 19s-32.7-6.2-45.1-18.5c-12.6-12.6-19-27.7-19-45.1v-.4c0-17.7 6.3-32.9 19-45.5 12.4-12.4 27.4-18.5 45.1-18.5 17.7 0 32.9 6.3 45.5 19 12.4 13.2 18.5 28.2 18.5 45.1 0 17.5-6.2 32.6-18.5 44.9zm251.1-125.5c-19.7-18-43.7-27-72.1-27-29.5 0-54.5 10.3-75 30.8s-30.8 45.5-30.8 75c0 29.2 10.3 54.1 30.8 74.6 20.8 20.8 45.8 31.2 75 31.2h6.3l6.3-.4 4.6-.4 4.2-.4 3.4-.4 2.9-.4c10.7-2.5 23-7.9 37.1-16 11.8-8.1 15.2-17.4 10.1-27.8-2.3-5.1-6.3-8.7-12.2-11-5.6-2.2-10.8-1.8-15.6 1.3-9.6 5.9-18.7 9.8-27.4 11.8l-2.1.4-2.5.4-3.4.4-3.4.4c-.3.3-3.1.4-8.4.4-13.5 0-26-4.1-37.5-12.2-11-7.9-18.7-18.3-23.2-31.2h145.4c5.3 0 10.4-2 15.2-5.9 3.9-4.8 5.9-9.7 5.9-14.7.1-32.4-11.2-58.7-33.6-78.9zM419.4 567c4.5-12.6 12.2-22.9 23.2-30.8 11.5-8.1 24-12.2 37.5-12.2 14 0 26.3 3.5 36.7 10.5 12.1 7.6 20.2 18.4 24.4 32.4H419.4zm202.7-140.5c-5.6 0-10.5 2.1-14.7 6.3s-6.3 9.1-6.3 14.7 2.1 10.5 6.3 14.7c3.9 3.9 8.8 5.9 14.7 5.9s10.8-2 14.7-5.9c3.9-3.9 5.9-8.8 5.9-14.7s-2-10.8-5.9-14.7c-4.1-4.2-9.1-6.3-14.7-6.3zm0 56.2c-5.9 0-10.8 2-14.7 5.9-4.2 4.2-6.3 9.1-6.3 14.7v169.8c0 5.9 2.1 10.8 6.3 14.7 3.9 4.2 8.8 6.3 14.7 6.3 5.6 0 10.5-2.1 14.7-6.3 3.9-3.9 5.9-8.8 5.9-14.7V503.4c0-5.1-2-10-5.9-14.7-4.7-4-9.6-6-14.7-6zm220 21.1c.6-6.5-1-11.5-4.6-15.2-3.7-4.2-8.4-6.6-14.3-7.2-6.5-.6-11.5 1-15.2 4.6l-95.6 62.8v-150c0-5.6-2.1-10.5-6.3-14.7-4.8-3.9-9.7-5.9-14.7-5.9-5.1 0-10 2-14.7 5.9-3.9 4.8-5.9 9.7-5.9 14.7v273c0 5.9 2 10.8 5.9 14.7 4.2 4.2 9.1 6.3 14.7 6.3s10.5-2.1 14.7-6.3c4.2-3.9 6.3-8.8 6.3-14.7v-73.7l13.1-8.8 80.1 96.1c3.9 5.1 9.3 7.6 16 7.6 5.1 0 9.4-1.7 13.1-5.1 4.8-3.9 7.3-8.6 7.6-13.9.6-6.5-1-11.5-4.6-15.2L761 566.5l73.7-48.5c4.6-3.8 7.1-8.6 7.4-14.2zM987 488.4c-18-4.6-35.3-4.7-51.9-.3l-4.5 1.2c-28 8.1-49 24.8-62.9 50.1-14.2 25.7-17.2 52.5-9.1 80.5.2.8.5 1.7.7 2.5 11.1 0 22.3 1.7 33.4 2.6-1.9-4.3-3.5-8.8-4.9-13.6-2.6-9-4.1-17.9-4.4-26.7.8.5 1.5 1.1 2.3 1.6.6-4.7 1.4-9.4 2.7-14.2 7.2-28.2 23.3-49.8 48.5-64.8 20.4-12.2 42-16.9 64.7-14.2-4.6-1.8-9.5-3.4-14.6-4.7z"/><path d="M984.4 667.2c16.7-8.2 28.1-21 34-38.3 1.1-3.2 1.9-6.3 2.5-9.4-6.5 12.9-16.5 22.7-30.3 29.4-16.7 8.2-32.6 8.1-50.2 3-17.9-5.3-31.9-18.6-39.8-35.1-6.5-13.6-8.1-26.1-5.2-40.3-1.4 2.8-2.7 5.8-3.7 9-1.9 5.6-3.1 11.1-3.6 16.5-2.6-10.6-3.1-21.9-1.5-33.7 2.9-20.4 11.7-37.4 26.3-50.9-2.3 1.5-4.7 3-7 4.8-19.3 14.5-30.6 33.6-34 57.3-3.4 24 2.1 45.7 16.6 65 14.4 19.1 33.6 30.4 57.6 33.8 24 3.4 45.6-2.1 64.7-16.4 2.7-2 5.3-4.2 7.7-6.4-10.9 6.8-22.6 10.8-35.1 12.2.4-.2.7-.3 1-.5z" fill="#0d8f99"/><path d="M983.5 691c-29 6.4-55.6 1.6-79.7-14.2-11.9-7.8-21.6-17.3-29-28.2-10.1-14.9-13.4-28.6-15.9-39.5-3.3-14.2-5.9-25.4-3.2-40.2 3.4-18.8 13.6-32.9 19.1-40.7 4.6-6.6 8.6-10.3 11.2-13.2-10.3 21.1-14.4 44.3-9.8 68 5.6 29.2 20.6 51.8 44.9 67.8 24.1 15.9 50.6 20.6 79.7 14.2l-17.3 26z" fill="#0eafaf"/><path class="st2" d="M1064.9 594.6c-.2-5.9-2.4-11.2-6.5-15-4.4-4-9.4-5.9-15-5.7-5.6.2-10.5 2.5-14.5 6.9-3.5 3.8-5.4 8-5.7 12.7 0 0-1.4 9.4-2.9 14.1-2.4 7.9-6 14.8-10.7 20.7-4.1 5.2-3.6 12.7 1.3 17.2 7.2 6.7 14.4 12.7 23.9 13.1 2.2.1 4.4-.9 5.8-2.6 8.6-10.3 15.1-22.4 19.4-36.2 3.9-12.5 4.3-12.7 4.9-25.2z"/><path d="M1049 630.7c-1.8-5.7-5.2-9.8-10.2-12.3-5-2.6-10.3-2.9-16-1.1-4.9 1.6-8.6 4.3-11.1 8.2 0 0-5.8 7.4-9.4 10.8-8.6 8-18.2 13.2-28.8 15.5 6.1 12.7 10.3 25.9 13.2 39.4 16.3-4.3 30.9-12.5 44-24.8 9.5-9 10-9 16.6-19.5 2.7-5.2 3.4-10.9 1.7-16.2z" fill="#5ad6e2"/><path d="M1014.4 667.1v-.4c0-3.5-1-6.9-2.8-10-2.9-4.8-7.2-8-13-9.5-.9-.2-1.8-.4-2.6-.5-.5-.2-1-.2-1.5-.2-3.4-.3-6.7.3-9.8 1.7 0 0-8.9 3.2-13.8 4.1-8.4 1.6-16.5 2-24.2.9-1.4-.3-2.9-.7-4.4-1.1-14.3-4-25.8-11.8-34.4-23.2 1.2 2.9 2.6 5.8 4.2 8.7 6 10.5 13.8 18.6 23.4 24.3-17.3-3.5-33.1-11.5-47.5-23.9-18-15.5-28.9-36.2-33.5-58.6-.3 5-.6 11.8-.2 17.1 2.1 29.1 14.1 53 35.9 72 9.9 8.6 20.6 15.1 31.9 19.4 17.9 7.2 36.9 9.2 56.7 5.3 1.6-.3 3-.6 4.3-.8 7.1-1.4 9.5-1.9 15.2-4.5 1.4-.5 2.7-1.1 4.1-1.9.3-.1.6-.3.9-.4 1-.6 1.9-1.3 2.8-2 .5-.4 1.1-.8 1.7-1.3 4.6-3.6 6.9-9.3 6.6-15.2z" fill="#8ff"/><path class="st8" d="M1055.8 493.7c1.1 5.8-2.4 11.4-7.8 12.4s-10.7-2.9-11.8-8.7c-1.1-5.8 2.4-11.4 7.8-12.4s10.7 2.9 11.8 8.7z"/><path class="st9" d="M1057.5 493.2c-1.3-6.9-7.5-11.5-13.9-10.3s-10.5 7.8-9.2 14.6c1.3 6.9 7.5 11.5 13.9 10.3 6.4-1.1 10.5-7.7 9.2-14.6zm-9.6 12.8c-5.4 1-10.7-2.9-11.8-8.7-1.1-5.8 2.4-11.4 7.8-12.4s10.7 2.9 11.8 8.7c1.2 5.8-2.3 11.4-7.8 12.4z"/><path class="st10" d="M1054 494.1c.9 4.8-2 9.3-6.4 10.1-4.4.8-8.7-2.3-9.6-7.1-.9-4.8 2-9.3 6.4-10.1 4.4-.9 8.7 2.3 9.6 7.1z"/><g opacity=".82"><path d="M1053.2 494.5c.7 4.3-2.2 6.9-3 6.2-.8-.7-.1-3.1-.6-5.8-.5-2.7-2.1-4.9-1.5-5.8.7-.8 4.4 1.1 5.1 5.4z" opacity=".51" fill="#fff"/></g><path d="M1045.3 488.3c1 0 .9.7.3 1.2-.6.6-1 1.1-1.5 1.2-.5.1-1.2-.1-1.2-.8 0-.7 1.3-1.6 2.4-1.6z" opacity=".64" fill="#fff"/><path class="st8" d="M1051.2 518.2c.6 3.3-1.3 6.4-4.4 7s-6-1.6-6.6-4.9c-.6-3.3 1.3-6.4 4.4-7 3.1-.6 6 1.6 6.6 4.9z"/><path class="st9" d="M1052.2 517.9c-.7-3.8-4.2-6.4-7.8-5.7-3.6.7-5.9 4.3-5.2 8.2s4.2 6.4 7.8 5.7c3.6-.7 5.9-4.3 5.2-8.2zm-5.4 7.2c-3 .6-6-1.6-6.6-4.9-.6-3.3 1.3-6.4 4.4-7s6 1.6 6.6 4.9c.6 3.3-1.3 6.4-4.4 7z"/><path class="st10" d="M1050.2 518.4c.5 2.7-1.1 5.2-3.6 5.7s-4.9-1.3-5.4-4 1.1-5.2 3.6-5.7 4.9 1.3 5.4 4z"/><path d="M1047.2 476.4c5.8-.2 10.8.4 13.6 1.7.6.3 1.3.1 1.6-.4.2-.3.4-.7.3-1-.2-2.5-7.3-4.2-15.8-3.8s-15.4 2.6-15.2 5.1c0 .3.2.7.5 1 .4.5 1.1.6 1.7.3 2.6-1.5 7.5-2.6 13.3-2.9zm.4 60.8c-16.3-.7-30 8.5-30.7 20.6v.1c-.1 2.7 3.2 4.1 5.2 2.2 1-.9 2-1.8 3.2-2.6.4-.3.8-.6 1.2-1 .6-.5 1.2-.9 1.8-1.3 4.3-5.5 11.3-8.8 19.1-8.4 7.5.4 13.9 4.3 17.4 9.9 1.5.8 2.6 2 3.7 3.3.6.7 1.3 1.3 1.9 1.9 1.8 2.1 5.3 1.1 5.5-1.7v-.1c.6-11.9-12.1-22.2-28.3-22.9z" fill="#77c0e5"/><path d="M1043.9 464.1c1.9-2.4 4-4.8 6.3-7.2-3.1-.7-6.6.2-8.8 2.8-1.5 1.8-3.1 3.7-4.6 5.7-3.1.9-5.1 2.2-5 3.5 0 .3.2.7.5 1 .3.3.7.4 1 .4-3.7 5.6-7 11.9-9.5 19.1-6.8 19.5-3.9 35.8-1.2 45.1.9 3 1.9 5.9 3.1 8.7-5.1 3.7-8.4 8.7-8.7 14.5v.1c-.1 2.7 3.2 4.1 5.2 2.2 1.1-1.1 2.4-2.1 3.8-3 .8-.8 1.6-1.4 2.4-1.8-2.4 3.1-4 6.8-4.3 10.9v.1c-.2 2.6 2.3 3.9 3.8 2.1.6-.7 1.3-1.4 2-2 .6-.5 1.1-1 1.6-1.6.7-.8 1.5-1.5 2.4-2.1 0 0 .9-19.7-2.7-31.5-3.2-10.4-10.4-34.5 9.8-63 .9-1.4 1.8-2.6 2.9-4z" opacity=".27" fill="#fff"/></svg>