<?xml version="1.0" encoding="utf-8"?>
<!-- Generator: Adobe Illustrator 19.0.1, SVG Export Plug-In . SVG Version: 6.00 Build 0)  -->
<svg version="1.1" id="Слой_1" xmlns="http://www.w3.org/2000/svg" xmlns:xlink="http://www.w3.org/1999/xlink" x="0px" y="0px"
	 viewBox="0 0 1280 1280" style="enable-background:new 0 0 1280 1280;" xml:space="preserve">
<style type="text/css">
	.st0{fill:none;}
	.st1{fill:#006CAF;}
	.st2{fill:#43BAD6;}
	.st3{fill:#0D8F99;}
	.st4{fill:#0EAFAF;}
	.st5{fill:#5AD6E2;}
	.st6{fill:#F4AE2A;}
	.st7{fill:#88FFFF;}
	.st8{fill:#DFE9EA;}
	.st9{fill:#0C4C77;}
	.st10{opacity:0.59;fill:#C8E1F3;}
	.st11{opacity:0.82;}
	.st12{opacity:0.51;fill:#FFFFFF;}
	.st13{opacity:0.64;}
	.st14{opacity:0.64;fill:#FFFFFF;}
	.st15{fill:#77C0E5;}
	.st16{opacity:0.27;fill:#FFFFFF;}
</style>
<g>
	<path class="st0" d="M1064.8,556.8c-0.3-0.2-0.7-0.4-1-0.5C1064.1,556.4,1064.4,556.6,1064.8,556.8z"/>
	<path class="st0" d="M1028.3,555.2c0.4-0.2,0.8-0.4,1.3-0.6C1029.1,554.8,1028.7,555,1028.3,555.2z"/>
	<path class="st0" d="M1029.7,554.5c0.4-0.2,0.9-0.3,1.4-0.5l0,0C1030.6,554.2,1030.1,554.4,1029.7,554.5z"/>
	<path class="st0" d="M1063.5,556.1c-0.3-0.1-0.6-0.3-0.9-0.4C1062.9,555.9,1063.2,556,1063.5,556.1z"/>
	<path class="st0" d="M1061.3,555.3c0.4,0.1,0.7,0.2,1,0.3C1062,555.6,1061.7,555.4,1061.3,555.3z"/>
	<path class="st1" d="M1064.8,556.8c-0.9-1.5-2.1-2.8-3.4-4c3.2-5.2,6.1-11.1,8.3-17.4c3.2-9.2,7-25.4,1.2-45.1
		c-3.6-12.4-9.9-22.6-16-30.3c-3.4-4.3-10.1-4.4-13.7-0.2c-6.5,7.5-13.3,17.5-17.6,29.7c-6.8,19.5-3.9,35.8-1.2,45.1
		c2,6.8,4.8,12.9,7.9,18.3c-0.8,0.7-1.5,1.5-2.1,2.3c0.4-0.2,0.8-0.4,1.3-0.6c-0.4,0.2-0.9,0.4-1.3,0.6c-2.4,3.1-3.9,6.8-4.2,10.8
		c0,0,0,0,0,0.1c-0.2,2.6,2.3,3.9,3.8,2.1c0.6-0.7,1.3-1.4,2-2c0.6-0.5,1.1-1,1.6-1.6c3.6-3.9,9-6.3,14.9-6.1
		c6.7,0.2,12.3,3.7,15.4,8.7c0.5,0.8,1,1.6,1.5,2.3c0.1,0.2,0.3,0.4,0.4,0.6c1.3,2,3.9,1.1,4.1-1.5c0,0,0-0.1,0-0.1
		C1068.1,564.2,1067,560.2,1064.8,556.8 M1061.6,552.7"/>
</g>
<path class="st2" d="M255.5,484c-28.9,0-53.8,10.4-74.6,31.2c-20.8,20.8-31.2,45.7-31.2,74.6v189.2c0,5.6,2.1,10.5,6.3,14.7
	c3.9,3.9,8.8,5.9,14.7,5.9c5.1,0,10-2,14.7-5.9c3.9-4.8,5.9-9.7,5.9-14.7V674c19.1,14.3,40.5,21.5,64,21.5c29.5,0,54.5-10.3,75-30.8
	c20.5-20.5,30.8-45.5,30.8-75c0-29.2-10.3-54.1-30.8-74.6C309.8,494.4,284.8,484,255.5,484z M301.1,634.8
	c-12.6,12.6-27.8,19-45.5,19c-17.7,0-32.7-6.2-45.1-18.5c-12.6-12.6-19-27.7-19-45.1v-0.4c0-17.7,6.3-32.9,19-45.5
	c12.4-12.4,27.4-18.5,45.1-18.5c17.7,0,32.9,6.3,45.5,19c12.4,13.2,18.5,28.2,18.5,45.1C319.6,607.4,313.4,622.5,301.1,634.8z"/>
<path class="st2" d="M552.2,509.3c-19.7-18-43.7-27-72.1-27c-29.5,0-54.5,10.3-75,30.8c-20.5,20.5-30.8,45.5-30.8,75
	c0,29.2,10.3,54.1,30.8,74.6c20.8,20.8,45.8,31.2,75,31.2h6.3l6.3-0.4l4.6-0.4l4.2-0.4l3.4-0.4l2.9-0.4c10.7-2.5,23-7.9,37.1-16
	c11.8-8.1,15.2-17.4,10.1-27.8c-2.3-5.1-6.3-8.7-12.2-11c-5.6-2.2-10.8-1.8-15.6,1.3c-9.6,5.9-18.7,9.8-27.4,11.8l-2.1,0.4l-2.5,0.4
	l-3.4,0.4l-3.4,0.4c-0.3,0.3-3.1,0.4-8.4,0.4c-13.5,0-26-4.1-37.5-12.2c-11-7.9-18.7-18.3-23.2-31.2h145.4c5.3,0,10.4-2,15.2-5.9
	c3.9-4.8,5.9-9.7,5.9-14.7C585.9,555.8,574.6,529.5,552.2,509.3z M419.4,567c4.5-12.6,12.2-22.9,23.2-30.8
	c11.5-8.1,24-12.2,37.5-12.2c14,0,26.3,3.5,36.7,10.5c12.1,7.6,20.2,18.4,24.4,32.4H419.4z"/>
<path class="st2" d="M622.1,426.5c-5.6,0-10.5,2.1-14.7,6.3s-6.3,9.1-6.3,14.7c0,5.6,2.1,10.5,6.3,14.7c3.9,3.9,8.8,5.9,14.7,5.9
	s10.8-2,14.7-5.9c3.9-3.9,5.9-8.8,5.9-14.7s-2-10.8-5.9-14.7C632.7,428.6,627.7,426.5,622.1,426.5z"/>
<path class="st2" d="M622.1,482.7c-5.9,0-10.8,2-14.7,5.9c-4.2,4.2-6.3,9.1-6.3,14.7v169.8c0,5.9,2.1,10.8,6.3,14.7
	c3.9,4.2,8.8,6.3,14.7,6.3c5.6,0,10.5-2.1,14.7-6.3c3.9-3.9,5.9-8.8,5.9-14.7V503.4c0-5.1-2-10-5.9-14.7
	C632.1,484.7,627.2,482.7,622.1,482.7z"/>
<path class="st2" d="M842.1,503.8c0.6-6.5-1-11.5-4.6-15.2c-3.7-4.2-8.4-6.6-14.3-7.2c-6.5-0.6-11.5,1-15.2,4.6l-95.6,62.8v-150
	c0-5.6-2.1-10.5-6.3-14.7c-4.8-3.9-9.7-5.9-14.7-5.9c-5.1,0-10,2-14.7,5.9c-3.9,4.8-5.9,9.7-5.9,14.7v273c0,5.9,2,10.8,5.9,14.7
	c4.2,4.2,9.1,6.3,14.7,6.3c5.6,0,10.5-2.1,14.7-6.3c4.2-3.9,6.3-8.8,6.3-14.7v-73.7l13.1-8.8l80.1,96.1c3.9,5.1,9.3,7.6,16,7.6
	c5.1,0,9.4-1.7,13.1-5.1c4.8-3.9,7.3-8.6,7.6-13.9c0.6-6.5-1-11.5-4.6-15.2l-76.7-92.3l73.7-48.5
	C839.3,514.2,841.8,509.4,842.1,503.8z"/>
<path class="st2" d="M987,488.4c-18-4.6-35.3-4.7-51.9-0.3c-1.5,0.4-3,0.8-4.5,1.2c-28,8.1-49,24.8-62.9,50.1
	c-14.2,25.7-17.2,52.5-9.1,80.5c0.2,0.8,0.5,1.7,0.7,2.5c11.1,0,22.3,1.7,33.4,2.6c-1.9-4.3-3.5-8.8-4.9-13.6
	c-2.6-9-4.1-17.9-4.4-26.7c0.8,0.5,1.5,1.1,2.3,1.6c0.6-4.7,1.4-9.4,2.7-14.2c7.2-28.2,23.3-49.8,48.5-64.8
	c20.4-12.2,42-16.9,64.7-14.2C997,491.3,992.1,489.7,987,488.4z"/>
<path class="st3" d="M984.4,667.2c16.7-8.2,28.1-21,34-38.3c1.1-3.2,1.9-6.3,2.5-9.4c-6.5,12.9-16.5,22.7-30.3,29.4
	c-16.7,8.2-32.6,8.1-50.2,3c-17.9-5.3-31.9-18.6-39.8-35.1c-6.5-13.6-8.1-26.1-5.2-40.3c-1.4,2.8-2.7,5.8-3.7,9
	c-1.9,5.6-3.1,11.1-3.6,16.5c-2.6-10.6-3.1-21.9-1.5-33.7c2.9-20.4,11.7-37.4,26.3-50.9c-2.3,1.5-4.7,3-7,4.8
	c-19.3,14.5-30.6,33.6-34,57.3c-3.4,24,2.1,45.7,16.6,65c14.4,19.1,33.6,30.4,57.6,33.8c24,3.4,45.6-2.1,64.7-16.4
	c2.7-2,5.3-4.2,7.7-6.4c-10.9,6.8-22.6,10.8-35.1,12.2C983.8,667.5,984.1,667.4,984.4,667.2z"/>
<path class="st4" d="M983.5,691c-29,6.4-55.6,1.6-79.7-14.2c-11.9-7.8-21.6-17.3-29-28.2c-10.1-14.9-13.4-28.6-15.9-39.5
	c-3.3-14.2-5.9-25.4-3.2-40.2c3.4-18.8,13.6-32.9,19.1-40.7c4.6-6.6,8.6-10.3,11.2-13.2c-10.3,21.1-14.4,44.3-9.8,68
	c5.6,29.2,20.6,51.8,44.9,67.8c24.1,15.9,50.6,20.6,79.7,14.2L983.5,691z"/>
<path class="st2" d="M1064.9,594.6c-0.2-5.9-2.4-11.2-6.5-15c-4.4-4-9.4-5.9-15-5.7c-5.6,0.2-10.5,2.5-14.5,6.9
	c-3.5,3.8-5.4,8-5.7,12.7c0,0-1.4,9.4-2.9,14.1c-2.4,7.9-6,14.8-10.7,20.7c-4.1,5.2-3.6,12.7,1.3,17.2c7.2,6.7,14.4,12.7,23.9,13.1
	c2.2,0.1,4.4-0.9,5.8-2.6c8.6-10.3,15.1-22.4,19.4-36.2C1063.9,607.3,1064.3,607.1,1064.9,594.6z"/>
<path class="st5" d="M1049,630.7c-1.8-5.7-5.2-9.8-10.2-12.3c-5-2.6-10.3-2.9-16-1.1c-4.9,1.6-8.6,4.3-11.1,8.2
	c0,0-5.8,7.4-9.4,10.8c-8.6,8-18.2,13.2-28.8,15.5c6.1,12.7,10.3,25.9,13.2,39.4c16.3-4.3,30.9-12.5,44-24.8c9.5-9,10-9,16.6-19.5
	C1050,641.7,1050.7,636,1049,630.7z"/>
<path class="st6" d="M934.4,663.3"/>
<path class="st7" d="M1014.4,667.1c0-0.1,0-0.3,0-0.4c0-3.5-1-6.9-2.8-10c-2.9-4.8-7.2-8-13-9.5c-0.9-0.2-1.8-0.4-2.6-0.5
	c-0.5-0.2-1-0.2-1.5-0.2c-3.4-0.3-6.7,0.3-9.8,1.7c0,0-8.9,3.2-13.8,4.1c-8.4,1.6-16.5,2-24.2,0.9c-1.4-0.3-2.9-0.7-4.4-1.1
	c-14.3-4-25.8-11.8-34.4-23.2c1.2,2.9,2.6,5.8,4.2,8.7c6,10.5,13.8,18.6,23.4,24.3c-17.3-3.5-33.1-11.5-47.5-23.9
	c-18-15.5-28.9-36.2-33.5-58.6c-0.3,5-0.6,11.8-0.2,17.1c2.1,29.1,14.1,53,35.9,72c9.9,8.6,20.6,15.1,31.9,19.4
	c17.9,7.2,36.9,9.2,56.7,5.3c1.6-0.3,3-0.6,4.3-0.8c0,0,0,0,0,0c7.1-1.4,9.5-1.9,15.2-4.5c1.4-0.5,2.7-1.1,4.1-1.9
	c0.3-0.1,0.6-0.3,0.9-0.4c1-0.6,1.9-1.3,2.8-2c0.5-0.4,1.1-0.8,1.7-1.3C1012.4,678.7,1014.7,673,1014.4,667.1z"/>
<path class="st8" d="M1055.8,493.7c1.1,5.8-2.4,11.4-7.8,12.4s-10.7-2.9-11.8-8.7c-1.1-5.8,2.4-11.4,7.8-12.4
	S1054.7,487.9,1055.8,493.7z"/>
<path class="st9" d="M1057.5,493.2c-1.3-6.9-7.5-11.5-13.9-10.3s-10.5,7.8-9.2,14.6c1.3,6.9,7.5,11.5,13.9,10.3
	C1054.7,506.7,1058.8,500.1,1057.5,493.2z M1047.9,506c-5.4,1-10.7-2.9-11.8-8.7c-1.1-5.8,2.4-11.4,7.8-12.4s10.7,2.9,11.8,8.7
	C1056.9,499.4,1053.4,505,1047.9,506z"/>
<g>
	<path class="st10" d="M1054,494.1c0.9,4.8-2,9.3-6.4,10.1c-4.4,0.8-8.7-2.3-9.6-7.1c-0.9-4.8,2-9.3,6.4-10.1
		C1048.8,486.1,1053.1,489.3,1054,494.1z"/>
	<g class="st11">
		<path class="st12" d="M1053.2,494.5c0.7,4.3-2.2,6.9-3,6.2c-0.8-0.7-0.1-3.1-0.6-5.8c-0.5-2.7-2.1-4.9-1.5-5.8
			C1048.8,488.3,1052.5,490.2,1053.2,494.5z"/>
	</g>
	<g class="st13">
		<path class="st14" d="M1045.3,488.3c1,0,0.9,0.7,0.3,1.2c-0.6,0.6-1,1.1-1.5,1.2c-0.5,0.1-1.2-0.1-1.2-0.8
			C1042.9,489.2,1044.2,488.3,1045.3,488.3z"/>
	</g>
</g>
<path class="st8" d="M1051.2,518.2c0.6,3.3-1.3,6.4-4.4,7s-6-1.6-6.6-4.9c-0.6-3.3,1.3-6.4,4.4-7
	C1047.7,512.7,1050.6,514.9,1051.2,518.2z"/>
<path class="st9" d="M1052.2,517.9c-0.7-3.8-4.2-6.4-7.8-5.7c-3.6,0.7-5.9,4.3-5.2,8.2s4.2,6.4,7.8,5.7
	C1050.6,525.4,1052.9,521.8,1052.2,517.9z M1046.8,525.1c-3,0.6-6-1.6-6.6-4.9c-0.6-3.3,1.3-6.4,4.4-7s6,1.6,6.6,4.9
	C1051.8,521.4,1049.9,524.5,1046.8,525.1z"/>
<g>
	<path class="st10" d="M1050.2,518.4c0.5,2.7-1.1,5.2-3.6,5.7c-2.5,0.5-4.9-1.3-5.4-4s1.1-5.2,3.6-5.7
		C1047.3,513.9,1049.7,515.7,1050.2,518.4z"/>
</g>
<g>
	<path class="st15" d="M1047.2,476.4c5.8-0.2,10.8,0.4,13.6,1.7c0.6,0.3,1.3,0.1,1.6-0.4c0.2-0.3,0.4-0.7,0.3-1
		c-0.2-2.5-7.3-4.2-15.8-3.8s-15.4,2.6-15.2,5.1c0,0.3,0.2,0.7,0.5,1c0.4,0.5,1.1,0.6,1.7,0.3
		C1036.5,477.8,1041.4,476.7,1047.2,476.4z"/>
</g>
<path class="st15" d="M1047.6,537.2c-16.3-0.7-30,8.5-30.7,20.6c0,0,0,0.1,0,0.1c-0.1,2.7,3.2,4.1,5.2,2.2c1-0.9,2-1.8,3.2-2.6
	c0.4-0.3,0.8-0.6,1.2-1c0.6-0.5,1.2-0.9,1.8-1.3c4.3-5.5,11.3-8.8,19.1-8.4c7.5,0.4,13.9,4.3,17.4,9.9c1.5,0.8,2.6,2,3.7,3.3
	c0.6,0.7,1.3,1.3,1.9,1.9c1.8,2.1,5.3,1.1,5.5-1.7c0,0,0-0.1,0-0.1C1076.5,548.2,1063.8,537.9,1047.6,537.2z"/>
<path class="st16" d="M1043.9,464.1c1.9-2.4,4-4.8,6.3-7.2c-3.1-0.7-6.6,0.2-8.8,2.8c-1.5,1.8-3.1,3.7-4.6,5.7
	c-3.1,0.9-5.1,2.2-5,3.5c0,0.3,0.2,0.7,0.5,1c0.3,0.3,0.7,0.4,1,0.4c-3.7,5.6-7,11.9-9.5,19.1c-6.8,19.5-3.9,35.8-1.2,45.1
	c0.9,3,1.9,5.9,3.1,8.7c-5.1,3.7-8.4,8.7-8.7,14.5c0,0,0,0.1,0,0.1c-0.1,2.7,3.2,4.1,5.2,2.2c1.1-1.1,2.4-2.1,3.8-3
	c0.8-0.8,1.6-1.4,2.4-1.8c-2.4,3.1-4,6.8-4.3,10.9c0,0,0,0,0,0.1c-0.2,2.6,2.3,3.9,3.8,2.1c0.6-0.7,1.3-1.4,2-2
	c0.6-0.5,1.1-1,1.6-1.6c0.7-0.8,1.5-1.5,2.4-2.1l0,0c0,0,0.9-19.7-2.7-31.5c-3.2-10.4-10.4-34.5,9.8-63
	C1041.9,466.7,1042.8,465.5,1043.9,464.1z"/>
</svg>
