<svg xmlns="http://www.w3.org/2000/svg" viewBox="0 0 457.245 457.245"><path d="M11.231 456.442a11.158 11.158 0 0 1-7.962-3.312c-4.376-4.409-4.354-11.516.044-15.881l305.6-303.68c4.409-4.387 11.494-4.343 15.881.044 4.365 4.398 4.343 11.516-.044 15.881l-305.6 303.68a11.237 11.237 0 0 1-7.919 3.268z"/><path d="M334.839 229.743a9.56 9.56 0 0 1-1.579-.132c-4.584-.636-8.313-4.058-9.366-8.588l-16.276-70.598-70.609-16.276a11.227 11.227 0 0 1-8.599-9.377 11.231 11.231 0 0 1 5.67-11.384l64.939-36.083-7.129-64.029a11.236 11.236 0 0 1 6.295-11.362c4.321-2.062 9.454-1.206 12.81 2.183l42.751 42.73 64.862-21.65a11.263 11.263 0 0 1 11.494 2.709 11.236 11.236 0 0 1 2.72 11.483l-21.606 64.917 42.73 42.73a11.22 11.22 0 0 1 2.194 12.799c-2.084 4.31-6.624 6.789-11.362 6.306l-64.072-7.074-36.039 64.906c-2.019 3.596-5.792 5.79-9.828 5.79zm-64.313-110.915l48.981 11.286a11.226 11.226 0 0 1 8.423 8.423l11.275 48.959 25.489-45.888c2.194-3.959 6.602-6.142 11.055-5.714l39.703 4.387-25.028-25.017a11.242 11.242 0 0 1-2.72-11.483l16.715-50.187-50.144 16.736c-4.036 1.382-8.467.296-11.494-2.709l-25.028-25.017 4.409 39.648a11.228 11.228 0 0 1-5.703 11.055l-45.933 25.521z"/></svg>