<svg xmlns="http://www.w3.org/2000/svg" width="210mm" height="297mm" viewBox="0 0 210 297"><path d="M96.19 111.626c-.603-.085-1.666-.422-2.363-.749-1.2-.562-2.697-2.023-27.754-27.078-14.567-14.567-26.704-26.84-26.97-27.273-1.442-2.343-1.67-5.472-.569-7.81 2.081-4.42 7.075-6.127 11.503-3.93.495.245 8.776 8.388 24.003 23.602 12.785 12.775 23.33 23.228 23.433 23.228.103 0 10.605-10.408 23.339-23.13 14.429-14.413 23.473-23.31 24.003-23.613 4.09-2.331 9.359-.675 11.475 3.606.602 1.219.704 1.623.773 3.06.089 1.853-.228 3.28-1.05 4.734-.642 1.133-52.887 53.418-54.193 54.234-1.59.993-3.642 1.4-5.63 1.119z" fill="#ed145b" stroke-width=".189"/></svg>