<svg xmlns="http://www.w3.org/2000/svg" viewBox="0 0 49.67 50.4"><defs><style>.cls-1{fill:#c8c5c0;}.cls-2{fill:#4c4947;}.cls-3{fill:#55504d;}</style></defs><title>Ресурс 1</title><g id="Слой_2" data-name="Слой 2"><g id="meterotite_копия_" data-name="meterotite (копия)"><path class="cls-1" d="M47.77,12.68C53,20.79,46.18,30.76,42.41,32.1S35.59,49.78,24.87,50.36,6.46,44.85,7.22,39.64s-4.53-9-6.9-18.55,9-12.72,9-12.72C11-1.82,23.67,2.77,24.73,1.95c6-4.65,12.94-.23,14.35,5.54C44.13,9.39,45,9.2,47.77,12.68Z"/><path class="cls-2" d="M11.1,10.5c.35-2.79,9.86-5.08,8.41,0S10.2,17.59,11.1,10.5Z"/><path class="cls-2" d="M32.17,32.1c-8.63,0-8-16.62,1.84-17S42.22,32.1,32.17,32.1Z"/><path class="cls-2" d="M12.84,43.4C9.23,41,14,33.67,17.48,37.81S18.46,47.17,12.84,43.4Z"/><path class="cls-3" d="M13.54,5a3.32,3.32,0,0,1,.39-.39,4.36,4.36,0,0,1,1.27-.76,5,5,0,0,1,1-.28,5.21,5.21,0,0,1,1.14-.09,7,7,0,0,1,1.23.16,6.87,6.87,0,0,1,1.21.46,6.88,6.88,0,0,1,1.06.74,5.26,5.26,0,0,1,.83.92,4.76,4.76,0,0,1,.56,1,4.66,4.66,0,0,1,.31,1,4.25,4.25,0,0,1,.07,1.48,5,5,0,0,1-.11.54,4.93,4.93,0,0,0-.19-.51,8.61,8.61,0,0,0-.57-1.22c-.15-.23-.3-.48-.48-.72s-.39-.48-.6-.72-.48-.44-.73-.66A5.88,5.88,0,0,0,18.14,5a5.67,5.67,0,0,0-1-.25,7.87,7.87,0,0,0-.93-.1c-.3,0-.59,0-.86,0a8.09,8.09,0,0,0-1.33.21Z"/><path class="cls-3" d="M27.38,6.57l.06.56a7.62,7.62,0,0,1,0,1.61,13,13,0,0,1-2.07,5.39,35.82,35.82,0,0,1-2.22,3.15c-.84,1.08-1.72,2.18-2.53,3.37a18.14,18.14,0,0,0-2.06,3.86,8.43,8.43,0,0,0-.58,4.24,7.24,7.24,0,0,0,1.83,3.81,27,27,0,0,0,3.24,3,22.68,22.68,0,0,1,3.15,3A8.65,8.65,0,0,1,28,42.1a5.57,5.57,0,0,1-.3,3.38,4.71,4.71,0,0,1-1.55,2.05,3.27,3.27,0,0,1-2.07.66A3.16,3.16,0,0,0,26,47.3a4.45,4.45,0,0,0,1.2-2,5.11,5.11,0,0,0,0-3,8.33,8.33,0,0,0-1.88-3,26.69,26.69,0,0,0-3.13-2.72,23.69,23.69,0,0,1-3.49-3.1A8.68,8.68,0,0,1,16.51,29a9.85,9.85,0,0,1,.71-5,19.44,19.44,0,0,1,2.33-4.08c.88-1.23,1.87-2.3,2.74-3.31s1.69-2,2.37-2.93a13.89,13.89,0,0,0,2.48-5,8.14,8.14,0,0,0,.23-1.57Z"/></g></g></svg>