<svg xmlns="http://www.w3.org/2000/svg" viewBox="0 0 15.43 15.43"><defs><style>.cls-1{fill:#f26342;}.cls-2{fill:#ad4d36;}</style></defs><title>Ресурс 1</title><g id="Слой_2" data-name="Слой 2"><g id="OBJECTS"><path class="cls-1" d="M15.43,7.72a7.38,7.38,0,0,1,0,.82,7.79,7.79,0,0,1-.54,2.11,8,8,0,0,1-.64,1.23,8,8,0,0,1-1.27,1.51h0a7.37,7.37,0,0,1-1.72,1.2h0a7.67,7.67,0,0,1-8.08-.71h0a7.82,7.82,0,0,1-1.52-1.52,7.22,7.22,0,0,1-1-1.78h0a6.89,6.89,0,0,1-.4-1.34A7.51,7.51,0,0,1,0,7.72,6.28,6.28,0,0,1,0,7a7.58,7.58,0,0,1,.2-1.19A8.18,8.18,0,0,1,.79,4.3a8.06,8.06,0,0,1,.64-1.06A7.76,7.76,0,0,1,3.26,1.41h0A7.32,7.32,0,0,1,4.39.75,7.71,7.71,0,0,1,12.8,1.92a7.52,7.52,0,0,1,.92,1,7.73,7.73,0,0,1,1.49,3,7,7,0,0,1,.21,1.45C15.43,7.47,15.43,7.59,15.43,7.72Z"/><path class="cls-2" d="M13.72,2.87c-.63,0-1.25.07-1.84.07A24,24,0,0,1,3.27,1.41,7.32,7.32,0,0,1,4.39.75,24.23,24.23,0,0,0,12.8,1.92,7.52,7.52,0,0,1,13.72,2.87Z"/><path class="cls-2" d="M15.21,5.89c-.64,0-1.26,0-1.87,0A46.28,46.28,0,0,1,.79,4.3a8.06,8.06,0,0,1,.64-1.06A47.33,47.33,0,0,0,14.82,4.71,7.77,7.77,0,0,1,15.21,5.89Z"/><path class="cls-2" d="M12.91,13.4a7.37,7.37,0,0,1-1.72,1.2h0a49,49,0,0,1-8.08-.71h0a7.82,7.82,0,0,1-1.52-1.52A48.16,48.16,0,0,0,12.91,13.4Z"/><path class="cls-2" d="M14.85,10.65a8,8,0,0,1-.64,1.23c-.74,0-1.45,0-2.15,0A48,48,0,0,1,.55,10.58h0a6.89,6.89,0,0,1-.4-1.34A47.71,47.71,0,0,0,14.85,10.65Z"/><path class="cls-2" d="M15.43,7.72a7.38,7.38,0,0,1,0,.82c-.94,0-1.86.07-2.73.07A46.48,46.48,0,0,1,0,7a7.58,7.58,0,0,1,.2-1.19A47.14,47.14,0,0,0,15.42,7.34C15.43,7.47,15.43,7.59,15.43,7.72Z"/></g></g></svg>