<svg xmlns="http://www.w3.org/2000/svg" viewBox="0 0 15.43 15.43"><g data-name="Слой 2"><path d="M15.43 7.72a7.38 7.38 0 0 1 0 .82 7.79 7.79 0 0 1-.54 2.11 8 8 0 0 1-.64 1.23 8 8 0 0 1-1.27 1.51 7.37 7.37 0 0 1-1.72 1.2 7.67 7.67 0 0 1-8.08-.71 7.82 7.82 0 0 1-1.52-1.52 7.22 7.22 0 0 1-1-1.78 6.89 6.89 0 0 1-.4-1.34A7.51 7.51 0 0 1 0 7.72 6.28 6.28 0 0 1 0 7a7.58 7.58 0 0 1 .2-1.19A8.18 8.18 0 0 1 .79 4.3a8.06 8.06 0 0 1 .64-1.06 7.76 7.76 0 0 1 1.83-1.83A7.32 7.32 0 0 1 4.39.75a7.71 7.71 0 0 1 8.41 1.17 7.52 7.52 0 0 1 .92 1 7.73 7.73 0 0 1 1.49 3 7 7 0 0 1 .21 1.45c.01.1.01.22.01.35z" fill="#f26342"/><path d="M13.72 2.87c-.63 0-1.25.07-1.84.07a24 24 0 0 1-8.61-1.53A7.32 7.32 0 0 1 4.39.75a24.23 24.23 0 0 0 8.41 1.17 7.52 7.52 0 0 1 .92.95zm1.49 3.02h-1.87A46.28 46.28 0 0 1 .79 4.3a8.06 8.06 0 0 1 .64-1.06 47.33 47.33 0 0 0 13.39 1.47 7.77 7.77 0 0 1 .39 1.18zm-2.3 7.51a7.37 7.37 0 0 1-1.72 1.2 49 49 0 0 1-8.08-.71 7.82 7.82 0 0 1-1.52-1.52 48.16 48.16 0 0 0 11.32 1.03zm1.94-2.75a8 8 0 0 1-.64 1.23h-2.15a48 48 0 0 1-11.51-1.3 6.89 6.89 0 0 1-.4-1.34 47.71 47.71 0 0 0 14.7 1.41zm.58-2.93a7.38 7.38 0 0 1 0 .82c-.94 0-1.86.07-2.73.07A46.48 46.48 0 0 1 0 7a7.58 7.58 0 0 1 .2-1.19 47.14 47.14 0 0 0 15.22 1.53c.01.13.01.25.01.38z" fill="#ad4d36"/></g></svg>