<svg xmlns="http://www.w3.org/2000/svg" viewBox="0 0 403.65 403.65"><defs><style>.cls-2{fill:#ffba7f}.cls-4{fill:#f59b60}</style></defs><g id="Слой_2" data-name="Слой 2"><g id="Режим_изоляции" data-name="Режим изоляции"><g id="_Группа_" data-name="&lt;Группа&gt;"><g id="_Группа_2" data-name="&lt;Группа&gt;"><path id="_Контур_" data-name="&lt;Контур&gt;" fill="#fff" opacity=".79" d="M369.32 130.94l2.98 6.03 6.66.97-4.82 4.69 1.14 6.63-5.96-3.13-5.95 3.13 1.14-6.63-4.82-4.69 6.66-.97 2.97-6.03z"/><circle id="_Контур_2" data-name="&lt;Контур&gt;" class="cls-2" cx="201.82" cy="201.82" r="201.82"/><circle id="_Контур_3" data-name="&lt;Контур&gt;" cx="154.41" cy="169.96" r="138.24" fill="#fccaa5"/><path id="_Контур_4" data-name="&lt;Контур&gt;" class="cls-4" d="M1.7 227.61c12.67 99.28 97.41 176 200.13 176 111.46 0 201.82-90.36 201.82-201.83a200.93 200.93 0 0 0-24.08-95.66C313.45 429 35.13 350.52 1.7 227.61z"/><circle id="_Контур_5" data-name="&lt;Контур&gt;" class="cls-2" cx="111.56" cy="73.48" r="19.41" transform="rotate(-89.36 111.565 73.473)"/><path id="_Контур_6" data-name="&lt;Контур&gt;" class="cls-4" d="M108.87 92.69A19.41 19.41 0 1 1 121 56.48c-31.17 6.02-23.92 32.87-12.13 36.21z"/><circle id="_Контур_7" data-name="&lt;Контур&gt;" class="cls-2" cx="67.76" cy="112.28" r="29.09" transform="rotate(-89.36 67.77 112.28)"/><path id="_Контур_8" data-name="&lt;Контур&gt;" class="cls-4" d="M63.73 141.08a29.09 29.09 0 1 1 18.11-54.26c-46.64 9.01-35.77 49.24-18.11 54.26z"/><circle id="_Контур_9" data-name="&lt;Контур&gt;" class="cls-2" cx="206.47" cy="149.26" r="24.33" transform="rotate(-89.36 206.469 149.262)"/><path id="_Контур_10" data-name="&lt;Контур&gt;" class="cls-4" d="M203.09 173.35A24.32 24.32 0 1 1 218.24 128c-39 7.5-29.92 41.15-15.15 45.35z"/><circle id="_Контур_11" data-name="&lt;Контур&gt;" class="cls-2" cx="152.79" cy="269.76" r="14.47" transform="rotate(-89.36 152.786 269.756)"/><path id="_Контур_12" data-name="&lt;Контур&gt;" class="cls-4" d="M150.78 284.08a14.47 14.47 0 1 1 9-27c-23.19 4.49-17.78 24.51-9 27z"/><circle id="_Контур_13" data-name="&lt;Контур&gt;" class="cls-2" cx="188.38" cy="246.44" r="20.86" transform="rotate(-89.36 188.382 246.443)"/><path id="_Контур_14" data-name="&lt;Контур&gt;" class="cls-4" d="M185.48 267.1a20.86 20.86 0 1 1 13-38.92c-33.48 6.47-25.67 35.32-13 38.92z"/></g></g></g></g></svg>