<svg xmlns="http://www.w3.org/2000/svg" viewBox="0 0 403.65 403.65"><defs><style>.cls-1{fill:#fff;opacity:0.79;}.cls-2{fill:#ffba7f;}.cls-3{fill:#fccaa5;}.cls-4{fill:#f59b60;}</style></defs><title>Ресурс 1</title><g id="Слой_2" data-name="Слой 2"><g id="Режим_изоляции" data-name="Режим изоляции"><g id="_Группа_" data-name="&lt;Группа&gt;"><g id="_Группа_2" data-name="&lt;Группа&gt;"><polygon id="_Контур_" data-name="&lt;Контур&gt;" class="cls-1" points="369.32 130.94 372.3 136.97 378.96 137.94 374.14 142.63 375.28 149.26 369.32 146.13 363.37 149.26 364.51 142.63 359.69 137.94 366.35 136.97 369.32 130.94"/><circle id="_Контур_2" data-name="&lt;Контур&gt;" class="cls-2" cx="201.82" cy="201.82" r="201.82"/><circle id="_Контур_3" data-name="&lt;Контур&gt;" class="cls-3" cx="154.41" cy="169.96" r="138.24"/><path id="_Контур_4" data-name="&lt;Контур&gt;" class="cls-4" d="M1.7,227.61c12.67,99.28,97.41,176,200.13,176,111.46,0,201.82-90.36,201.82-201.83a200.93,200.93,0,0,0-24.08-95.66C313.45,429,35.13,350.52,1.7,227.61Z"/><circle id="_Контур_5" data-name="&lt;Контур&gt;" class="cls-2" cx="111.56" cy="73.48" r="19.41" transform="translate(36.85 184.21) rotate(-89.36)"/><path id="_Контур_6" data-name="&lt;Контур&gt;" class="cls-4" d="M108.87,92.69A19.41,19.41,0,1,1,121,56.48C89.83,62.5,97.08,89.35,108.87,92.69Z"/><circle id="_Контур_7" data-name="&lt;Контур&gt;" class="cls-2" cx="67.76" cy="112.28" r="29.09" transform="translate(-45.26 178.79) rotate(-89.36)"/><path id="_Контур_8" data-name="&lt;Контур&gt;" class="cls-4" d="M63.73,141.08A29.09,29.09,0,1,1,81.84,86.82C35.2,95.83,46.07,136.06,63.73,141.08Z"/><circle id="_Контур_9" data-name="&lt;Контур&gt;" class="cls-2" cx="206.47" cy="149.26" r="24.33" transform="translate(54.91 354.05) rotate(-89.36)"/><path id="_Контур_10" data-name="&lt;Контур&gt;" class="cls-4" d="M203.09,173.35A24.32,24.32,0,1,1,218.24,128C179.24,135.5,188.32,169.15,203.09,173.35Z"/><circle id="_Контур_11" data-name="&lt;Контур&gt;" class="cls-2" cx="152.79" cy="269.76" r="14.47" transform="translate(-118.66 419.52) rotate(-89.36)"/><path id="_Контур_12" data-name="&lt;Контур&gt;" class="cls-4" d="M150.78,284.08a14.47,14.47,0,1,1,9-27C136.59,261.57,142,281.59,150.78,284.08Z"/><circle id="_Контур_13" data-name="&lt;Контур&gt;" class="cls-2" cx="188.38" cy="246.44" r="20.86" transform="translate(-60.15 432.06) rotate(-89.36)"/><path id="_Контур_14" data-name="&lt;Контур&gt;" class="cls-4" d="M185.48,267.1a20.86,20.86,0,1,1,13-38.92C165,234.65,172.81,263.5,185.48,267.1Z"/></g></g></g></g></svg>