<svg id="Слой_1" data-name="Слой 1" xmlns="http://www.w3.org/2000/svg" viewBox="0 0 93.98 173.61"><defs><style>.cls-6{fill:#dbe9ea}.cls-7{fill:#004b79}.cls-8{fill:#bde1f3;opacity:.59;isolation:isolate}</style></defs><path d="M1043.77 127.72a4.67 4.67 0 0 0-1.11.09 9.26 9.26 0 0 1 1.11-.09zm-32.05 17.54c.24-.38.48-.76.8-1.19-.33.44-.52.81-.8 1.19zm.83-1.32c.24-.38.61-.72.94-1.15a12.12 12.12 0 0 1-.94 1.15zm29.74-16.14c-.31.07-.67.05-1 .12a3.55 3.55 0 0 0 1-.12zm-2.29.45c.39-.12.7-.19 1-.26a5.38 5.38 0 0 1-1 .26z" transform="translate(-969.76 -49.51)" fill="none"/><path d="M1043.77 127.72a18.5 18.5 0 0 0-5-1.66 90.24 90.24 0 0 0-1.91-19.18 72.86 72.86 0 0 0-22.34-39.2 89.29 89.29 0 0 0-29.38-17.63A9 9 0 0 0 973.33 57a93.07 93.07 0 0 0 .33 34.52A73.16 73.16 0 0 0 996 130.7a84.84 84.84 0 0 0 16.24 11.56 15.06 15.06 0 0 0-.6 3.06c.24-.38.48-.76.8-1.19-.24.38-.56.81-.8 1.19a20 20 0 0 0 2 11.41l.05.09c1.18 2.33 4 2.14 4.34-.17a18.88 18.88 0 0 1 .67-2.75 12.1 12.1 0 0 0 .54-2.2 19.38 19.38 0 0 1 9.59-12.94 18.63 18.63 0 0 1 17.68-.54c.84.43 1.68.85 2.47 1.19.19.12.46.19.65.31 2.15 1 3.91-1.08 2.73-3.41l-.05-.09a18.19 18.19 0 0 0-8.54-8.51" transform="translate(-969.76 -49.51)" fill="#006cb2"/><path d="M1035 143.73l-.24.08a12.51 12.51 0 0 0-5.51 3.89 13.77 13.77 0 0 0-3 10.25c.07.61.15 1.23.26 1.75a2.7 2.7 0 0 0 .21 1 13.46 13.46 0 0 0 3.18 5.86 83.55 83.55 0 0 1 5.53 7.89c1.68 3 2 4.72 5.84 15.16 1.1 3 1.21 3.21 1.54 4.12a89.62 89.62 0 0 1 4.62 21.9 32.83 32.83 0 0 0 1.5-3.77 27.06 27.06 0 0 0 .12-17 94.63 94.63 0 0 0 10.5 28.24 20 20 0 0 1-1.57-8.28 24.22 24.22 0 0 1 1.64-8.11s3.23-12 3.43-13.69c0 0 3-18.56-4.33-32.23-.11-.21-.69-1.26-1.43-2.56-2.41-4.21-3.24-5.63-6.08-8.69a17.11 17.11 0 0 0-2.06-2.2c-.13-.17-.31-.32-.44-.49a19 19 0 0 0-1.84-1.35c-.35-.23-.73-.53-1.17-.8a11.42 11.42 0 0 0-10.7-.97z" transform="translate(-969.76 -49.51)" fill="#00bad7"/><path d="M1039 150.16l-.21.07a10.71 10.71 0 0 0-4.71 3.32 11.79 11.79 0 0 0-2.54 8.77c.06.52.13 1 .22 1.5a2.31 2.31 0 0 0 .18.85 11.52 11.52 0 0 0 2.72 5 71.5 71.5 0 0 1 4.73 6.75c1.44 2.59 1.7 4 5 13 .94 2.54 1 2.75 1.32 3.53a76.69 76.69 0 0 1 4 18.74 28.1 28.1 0 0 0 1.28-3.23 23.16 23.16 0 0 0 .1-14.53 81 81 0 0 0 9 24.17 17.13 17.13 0 0 1-1.35-7.08 20.73 20.73 0 0 1 1.4-6.94s2.77-10.28 2.94-11.72c0 0 2.59-15.89-3.7-27.58-.1-.18-.59-1.08-1.22-2.19a32 32 0 0 0-5.2-7.44 14.64 14.64 0 0 0-1.76-1.88c-.11-.14-.27-.27-.38-.42a16.27 16.27 0 0 0-1.57-1.16c-.3-.2-.62-.45-1-.69a9.78 9.78 0 0 0-9.25-.84z" transform="translate(-969.76 -49.51)" fill="#00d6e2"/><path d="M1042.18 156.32h-.13a6.67 6.67 0 0 0-2.94 2.07 7.34 7.34 0 0 0-1.58 5.47c0 .33.08.65.14.94a1.44 1.44 0 0 0 .11.53 7.18 7.18 0 0 0 1.7 3.12 44.53 44.53 0 0 1 2.95 4.21c.89 1.61 1.06 2.52 3.12 8.08.58 1.58.64 1.71.82 2.2a47.78 47.78 0 0 1 2.46 11.68 17.49 17.49 0 0 0 .8-2 14.43 14.43 0 0 0 .06-9.05 50.45 50.45 0 0 0 5.6 15.06 10.67 10.67 0 0 1-.84-4.41 12.91 12.91 0 0 1 .87-4.32s1.72-6.4 1.83-7.3c0 0 1.61-9.9-2.31-17.18-.06-.11-.37-.67-.76-1.36a20 20 0 0 0-3.24-4.64 9.12 9.12 0 0 0-1.1-1.17c-.07-.09-.17-.17-.24-.26a10.12 10.12 0 0 0-1-.72c-.19-.12-.39-.28-.62-.43a6.09 6.09 0 0 0-5.7-.52z" transform="translate(-969.76 -49.51)" fill="#0ff"/><path class="cls-6" d="M1003.38 78.41c3.95 4.39 3.85 11-.25 14.65s-10.65 3.06-14.6-1.33-3.85-11 .25-14.65 10.66-3.08 14.6 1.33z" transform="translate(-969.76 -49.51)"/><path class="cls-7" d="M1004.58 77.1c-4.69-5.23-12.37-6-17.23-1.61s-4.94 12.11-.35 17.26 12.37 6 17.23 1.61 5.03-12.03.35-17.26zM1003 93c-4.1 3.65-10.65 3.06-14.6-1.33s-3.85-11 .25-14.65 10.65-3.06 14.6 1.33 3.93 10.97-.25 14.65z" transform="translate(-969.76 -49.51)"/><path class="cls-8" d="M1002 79.69c3.26 3.64 3.11 9-.24 12a8.45 8.45 0 0 1-11.89-1.1c-3.26-3.64-3.11-9 .24-12s8.68-2.59 11.89 1.1z" transform="translate(-969.76 -49.51)"/><g opacity=".82"><path d="M1001.57 80.44c2.83 3.32 1.69 7 .65 6.86s-1.69-2.6-3.52-4.65-4.33-3.1-4.29-4.18 4.34-1.34 7.16 1.97z" transform="translate(-969.76 -49.51)" style="isolation:isolate" opacity=".51" fill="#fff"/></g><path d="M991.6 79.23c.86-.52 1.13.13.88.87a3.73 3.73 0 0 1-.66 1.8.91.91 0 0 1-1.44-.06c-.38-.6.28-2.04 1.22-2.61z" transform="translate(-969.76 -49.51)" style="isolation:isolate" opacity=".64" fill="#fff"/><path class="cls-6" d="M1012.14 101.75a5.84 5.84 0 0 1-.14 8.25 5.74 5.74 0 0 1-8.18-.77 5.84 5.84 0 0 1 .18-8.23 5.74 5.74 0 0 1 8.14.75z" transform="translate(-969.76 -49.51)"/><path class="cls-7" d="M1012.84 101a6.63 6.63 0 1 0-9.82 8.87 6.75 6.75 0 0 0 9.62.84 6.88 6.88 0 0 0 .2-9.71zm-.89 9a6.07 6.07 0 1 1 .14-8.27 5.79 5.79 0 0 1-.14 8.2z" transform="translate(-969.76 -49.51)"/><path class="cls-8" d="M1011.39 102.44a4.78 4.78 0 0 1-.13 6.74 4.7 4.7 0 0 1-6.69-.62 4.78 4.78 0 0 1 .13-6.74 4.7 4.7 0 0 1 6.69.62z" transform="translate(-969.76 -49.51)"/><path d="M1018.9 119.87c-14.31 7.84-21.26 22.81-15.59 33.52l.05.09a3 3 0 0 0 5.59-.81 27.84 27.84 0 0 1 1.39-3.88 10.58 10.58 0 0 0 .51-1.48 20.25 20.25 0 0 1 .87-2 22.57 22.57 0 0 1 12-17.08 21.76 21.76 0 0 1 20-.55 12.93 12.93 0 0 1 4.87.91c.88.29 1.79.44 2.61.64a3.11 3.11 0 0 0 3.82-4.3l-.05-.09c-5.65-10.53-21.85-12.77-36.07-4.97z" transform="translate(-969.76 -49.51)" fill="#3ec0e6"/><path d="M977.87 59.26q.57-4.56 1.66-9.42a9 9 0 0 0-6.08 7c-.35 2.32-.73 4.77-1 7.26-2.19 2.38-3.22 4.52-2.46 5.58a1.59 1.59 0 0 0 .95.6 1.43 1.43 0 0 0 1.06-.18 85.14 85.14 0 0 0 1.77 21.26 73.16 73.16 0 0 0 22.34 39.2 81.35 81.35 0 0 0 7.16 5.84c-2.45 5.81-2.68 11.79.07 16.91l.05.09a3 3 0 0 0 5.59-.81 22.85 22.85 0 0 1 1.7-4.53 9.4 9.4 0 0 1 1.12-2.78 20.16 20.16 0 0 0 2 11.55l.05.09c1.18 2.33 4 2.14 4.34-.17a18.88 18.88 0 0 1 .67-2.75 12.1 12.1 0 0 0 .54-2.2 12.06 12.06 0 0 1 1-3s-9.43-17.32-18.63-25.55c-8.12-7.24-26.77-24.12-24.25-59-.01-1.73.13-3.25.35-4.99z" transform="translate(-969.76 -49.51)" style="isolation:isolate" opacity=".27" fill="#fff"/></svg>