<svg xmlns="http://www.w3.org/2000/svg" viewBox="0 0 74.08 47.08"><defs><style>.cls-1{fill:#fec777}</style></defs><g id="Слой_2" data-name="Слой 2"><g id="Режим_изоляции" data-name="Режим изоляции"><path class="cls-1" d="M39 17.55C18.61 11.65 1.16 10 .05 13.77l9.76 2.82c.62-2.14 13.31-.35 28.34 4s26.73 9.58 26.11 11.71L74 35.12c1.12-3.81-14.54-11.68-35-17.57z"/><path d="M15.6 17a23.54 23.54 0 0 0 22.51 30.08V0A23.55 23.55 0 0 0 15.6 17z" fill="#db594c"/><path d="M44.75.92A23.53 23.53 0 0 0 38.11 0v47.08A23.54 23.54 0 0 0 44.75.92z" fill="#ba4742"/><path class="cls-1" d="M35.92 28.31C20.89 24 9.2 18.72 9.82 16.59L.05 13.77C-1 17.58 14.62 25.45 35 31.35s37.88 7.59 39 3.78l-9.74-2.83c-.61 2.14-13.26.35-28.34-3.99z"/></g></g></svg>