<svg xmlns="http://www.w3.org/2000/svg" viewBox="0 0 74.08 47.05"><defs><style>.cls-1{fill:#fec777;}.cls-2{fill:#db594c;}.cls-3{fill:#ba4742;}</style></defs><title>Ресурс 2</title><g id="Слой_2" data-name="Слой 2"><g id="Режим_изоляции" data-name="Режим изоляции"><path class="cls-1" d="M39,17.54C18.61,11.64,1.16,10,.05,13.76l9.76,2.82c.62-2.14,13.31-.35,28.34,4S64.88,30.16,64.26,32.3L74,35.12C75.12,31.3,59.46,23.44,39,17.54Z"/><path class="cls-2" d="M15.61,17A23.49,23.49,0,0,0,31.81,46.12a23.89,23.89,0,0,0,6.47.92V0A23.69,23.69,0,0,0,15.61,17Z"/><path class="cls-3" d="M44.16.92A25.14,25.14,0,0,0,37.3,0V47.05a24.26,24.26,0,0,0,23.51-17C64.53,17.57,57.08,4.53,44.16.92Z"/><path class="cls-1" d="M35.92,28.31C20.89,24,9.2,18.72,9.82,16.58L.05,13.76C-1,17.57,14.62,25.44,35,31.34s37.88,7.59,39,3.78L64.26,32.3C63.65,34.43,51,32.65,35.92,28.31Z"/></g></g></svg>