<svg xmlns="http://www.w3.org/2000/svg" viewBox="0 0 74.08 47.05"><defs><style>.cls-1{fill:#fec777}</style></defs><g id="Слой_2" data-name="Слой 2"><g id="Режим_изоляции" data-name="Режим изоляции"><path class="cls-1" d="M39 17.54C18.61 11.64 1.16 10 .05 13.76l9.76 2.82c.62-2.14 13.31-.35 28.34 4s26.73 9.58 26.11 11.72L74 35.12c1.12-3.82-14.54-11.68-35-17.58z"/><path d="M15.61 17a23.49 23.49 0 0 0 16.2 29.12 23.89 23.89 0 0 0 6.47.92V0a23.69 23.69 0 0 0-22.67 17z" fill="#db594c"/><path d="M44.16.92A25.14 25.14 0 0 0 37.3 0v47.05a24.26 24.26 0 0 0 23.51-17C64.53 17.57 57.08 4.53 44.16.92z" fill="#ba4742"/><path class="cls-1" d="M35.92 28.31C20.89 24 9.2 18.72 9.82 16.58L.05 13.76C-1 17.57 14.62 25.44 35 31.34s37.88 7.59 39 3.78l-9.74-2.82c-.61 2.13-13.26.35-28.34-3.99z"/></g></g></svg>