<svg xmlns="http://www.w3.org/2000/svg" viewBox="0 0 74.08 47.08"><defs><style>.cls-1{fill:#fec777;}.cls-2{fill:#db594c;}.cls-3{fill:#ba4742;}</style></defs><title>Ресурс 1</title><g id="Слой_2" data-name="Слой 2"><g id="Режим_изоляции" data-name="Режим изоляции"><path class="cls-1" d="M39,17.55C18.61,11.65,1.16,10,.05,13.77l9.76,2.82c.62-2.14,13.31-.35,28.34,4S64.88,30.17,64.26,32.3L74,35.12C75.12,31.31,59.46,23.44,39,17.55Z"/><path class="cls-2" d="M15.6,17A23.54,23.54,0,0,0,38.11,47.08V0A23.55,23.55,0,0,0,15.6,17Z"/><path class="cls-3" d="M44.75.92A23.53,23.53,0,0,0,38.11,0V47.08A23.54,23.54,0,0,0,44.75.92Z"/><path class="cls-1" d="M35.92,28.31C20.89,24,9.2,18.72,9.82,16.59L.05,13.77C-1,17.58,14.62,25.45,35,31.35s37.88,7.59,39,3.78L64.26,32.3C63.65,34.44,51,32.65,35.92,28.31Z"/></g></g></svg>