<svg width="32" height="32" viewBox="0 0 32 32" fill="none" xmlns="http://www.w3.org/2000/svg">
<mask id="mask0" mask-type="alpha" maskUnits="userSpaceOnUse" x="2" y="2" width="28" height="28">
<path fill-rule="evenodd" clip-rule="evenodd" d="M26.666 5.20001L20.5332 0L18.7998 2L24.9336 7.20001L26.666 5.20001ZM7.86621 2.13336L6.13379 0.133362L0 5.20001L1.7334 7.20001L7.86621 2.13336ZM12 8.26666H14V15.3333L19.333 18.5333L18.2666 20.1333L12 16.2667V8.26666ZM13.333 2.93335C6.66602 2.93335 1.33301 8.26666 1.33301 14.9333C1.33301 21.6 6.66602 26.9333 13.333 26.9333C20 26.9333 25.333 21.6 25.333 14.9333C25.333 8.26666 20 2.93335 13.333 2.93335ZM4 14.9333C4 20.1333 8.13379 24.2667 13.333 24.2667C18.5332 24.2667 22.667 20.1333 22.667 14.9333C22.667 9.73334 18.5332 5.59998 13.333 5.59998C8.13379 5.59998 4 9.73334 4 14.9333Z" transform="translate(2.66699 2.40002)" fill="white"/>
</mask>
<g mask="url(#mask0)">
<path fill-rule="evenodd" clip-rule="evenodd" d="M0 0H32V32H0V0Z" fill="#939393"/>
</g>
</svg>
