<svg width="32" height="32" viewBox="0 0 32 32" fill="none" xmlns="http://www.w3.org/2000/svg">
<mask id="mask0" mask-type="alpha" maskUnits="userSpaceOnUse" x="3" y="2" width="25" height="28">
<path fill-rule="evenodd" clip-rule="evenodd" d="M19.7511 3.29333C19.6447 3.29333 19.5378 3.26672 19.4445 3.21338C16.8844 1.89331 14.6711 1.33337 12.0177 1.33337C9.3781 1.33337 6.87126 1.95996 4.59099 3.21338C4.27117 3.38672 3.87127 3.26672 3.68474 2.94666C3.5114 2.62671 3.63103 2.21338 3.95134 2.04004C6.43132 0.693359 9.15105 0 12.0177 0C14.8581 0 17.3381 0.626709 20.0578 2.02661C20.3913 2.19995 20.5114 2.59998 20.3381 2.92004C20.2179 3.16003 19.9914 3.29333 19.7511 3.29333ZM0.321949 10.1968L0.284351 10.1733C0.130542 10.0662 0.0367925 9.90869 0.00896044 9.7395C-0.0188716 9.57178 0.0177495 9.3927 0.124195 9.23999C1.44451 7.37329 3.12419 5.90662 5.12419 4.88C9.31121 2.71997 14.6711 2.70667 18.8713 4.8667C20.8713 5.89331 22.551 7.34668 23.8713 9.19995C23.9538 9.31335 23.9943 9.44678 23.9953 9.58008C23.9968 9.79138 23.8991 10.0024 23.7111 10.1333C23.4045 10.3467 22.9909 10.28 22.7775 9.97327C21.5778 8.29333 20.0578 6.97327 18.2575 6.05334C14.4308 4.09326 9.53777 4.09326 5.72429 6.06665C3.91082 7 2.39128 8.33325 1.19109 10.0133C1.08416 10.2 0.884449 10.2933 0.67107 10.2933C0.576832 10.2933 0.482593 10.2733 0.393238 10.2334C0.369312 10.2227 0.345386 10.2104 0.321949 10.1968ZM8.53777 26.1866C8.65789 26.3201 8.83123 26.3867 9.00457 26.3867C9.17791 26.3867 9.35125 26.3201 9.49773 26.1866C9.58025 26.0996 9.63591 25.9969 9.66472 25.8889C9.68621 25.8086 9.69255 25.7252 9.68425 25.6429C9.68035 25.6063 9.67351 25.5699 9.66375 25.5342C9.64812 25.4772 9.62517 25.4216 9.5949 25.3691C9.56853 25.3235 9.53582 25.2802 9.49773 25.24C8.47087 24.2001 7.88445 23.5468 7.03093 22.0133C6.21746 20.5734 5.79119 18.8 5.79119 16.88C5.79119 13.6533 8.57781 11.0267 12.0046 11.0267C15.4308 11.0267 18.2175 13.6533 18.2175 16.88C18.2175 17.2534 18.5109 17.5468 18.8844 17.5468C19.2575 17.5468 19.551 17.2534 19.551 16.88C19.551 12.92 16.1642 9.69336 12.0046 9.69336C7.84441 9.69336 4.45769 12.92 4.45769 16.88C4.45769 19.0267 4.93767 21.0267 5.85759 22.6667C6.75115 24.28 7.37761 25.0267 8.53777 26.1866ZM18.5651 23.92C16.9787 23.92 15.5783 23.52 14.4318 22.7334C12.445 21.3867 11.2585 19.2001 11.2585 16.88C11.2585 16.5067 11.5519 16.2134 11.925 16.2134C12.2985 16.2134 12.592 16.5067 12.592 16.88C12.592 18.76 13.5519 20.5333 15.1784 21.6267C16.1252 22.2667 17.2316 22.5734 18.5651 22.5734C18.8849 22.5734 19.4186 22.5333 19.9518 22.4401C20.112 22.4104 20.2692 22.4414 20.4006 22.5178C20.5646 22.6133 20.6882 22.7794 20.7253 22.9867C20.7917 23.3467 20.5519 23.6934 20.1784 23.76C19.4186 23.9067 18.7516 23.92 18.5651 23.92ZM15.7116 26.64C15.7648 26.6533 15.8312 26.6666 15.8849 26.6666C16.1647 26.6666 16.445 26.4667 16.5114 26.1599C16.6047 25.8134 16.405 25.4399 16.0446 25.3467C14.1647 24.8267 12.9513 24.1333 11.6847 22.88C10.0715 21.28 9.19158 19.1466 9.19158 16.8666C9.19158 15.4399 10.4313 14.28 11.9645 14.28C13.4982 14.28 14.738 15.4399 14.738 16.8666C14.738 19.0266 16.5783 20.7866 18.8449 20.7866C21.1115 20.7866 22.9513 19.0266 22.9513 16.8666C22.9513 11.1067 18.0182 6.42664 11.9513 6.42664C7.6447 6.42664 3.7116 8.83997 1.93816 12.5599C1.33806 13.8267 1.03142 15.28 1.03142 16.88C1.03142 18.6799 1.35125 20.4133 2.00457 22.1599C2.12468 22.4933 2.5114 22.6799 2.85808 22.5466C3.20476 22.4266 3.3781 22.0399 3.2448 21.6934C2.445 19.5599 2.35125 17.9199 2.35125 16.88C2.35125 15.4933 2.61785 14.2267 3.13787 13.1466C4.69793 9.88 8.16472 7.77332 11.9513 7.77332C17.2848 7.77332 21.6178 11.8533 21.6178 16.88C21.6178 18.3066 20.3781 19.4667 18.8449 19.4667C17.3112 19.4667 16.0715 18.3066 16.0715 16.88C16.0715 14.72 14.2316 12.96 11.9645 12.96C9.69793 12.96 7.85808 14.72 7.85808 16.88C7.85808 19.52 8.88494 21.9867 10.7516 23.84C12.2048 25.2666 13.5915 26.0533 15.7116 26.64Z" transform="translate(3.99561 2.66663)" fill="white"/>
</mask>
<g mask="url(#mask0)">
<path fill-rule="evenodd" clip-rule="evenodd" d="M0 0H32V32H0V0Z" fill="#939393"/>
</g>
</svg>
