<svg width="32" height="32" viewBox="0 0 32 32" fill="none" xmlns="http://www.w3.org/2000/svg">
<mask id="mask0" mask-type="alpha" maskUnits="userSpaceOnUse" x="3" y="2" width="26" height="28">
<path fill-rule="evenodd" clip-rule="evenodd" d="M22.9728 13.3334C22.9728 13.7866 22.9328 14.2134 22.879 14.64L25.6925 16.84C25.9459 17.04 26.0123 17.4 25.8527 17.6934L23.1857 22.3066C23.026 22.6 22.6793 22.72 22.3727 22.6L19.0524 21.2667C18.359 21.7866 17.6124 22.24 16.7994 22.5734L16.2926 26.1067C16.2662 26.3171 16.1364 26.493 15.9557 26.5887C15.8615 26.6385 15.7536 26.6666 15.6393 26.6666H10.3058C9.97279 26.6666 9.69252 26.4266 9.65248 26.1067L9.14613 22.5734C8.33265 22.24 7.58607 21.8 6.89271 21.2667L3.5724 22.6C3.4059 22.6606 3.21791 22.6523 3.05678 22.5801C2.9347 22.5251 2.82826 22.4333 2.75941 22.3066L0.0924195 17.6934C-0.0672484 17.4 -0.00084219 17.04 0.252576 16.84L3.06605 14.64C3.01234 14.2134 2.97279 13.7733 2.97279 13.3334C2.97279 12.8933 3.01234 12.4534 3.06605 12.0266L0.252576 9.82666C-0.00084219 9.62671 -0.0809203 9.26672 0.0924195 8.97339L2.75941 4.35999C2.91908 4.06665 3.26576 3.94666 3.5724 4.06665L6.89271 5.40002C7.58607 4.88 8.33265 4.42664 9.14613 4.09338L9.65248 0.560059C9.69252 0.23999 9.97279 0 10.3058 0H15.6393C15.9728 0 16.2526 0.23999 16.2926 0.560059L16.7994 4.09338C17.6124 4.42664 18.359 4.8667 19.0524 5.40002L22.3727 4.06665C22.6661 3.95996 23.026 4.06665 23.1857 4.35999L25.8527 8.97339C26.0123 9.26672 25.9459 9.62671 25.6925 9.82666L22.879 12.0266C22.9015 12.2067 22.922 12.3867 22.9376 12.5688C22.9596 12.8182 22.9728 13.0713 22.9728 13.3334ZM8.3058 13.3333C8.3058 15.9066 10.3991 18 12.9723 18C15.546 18 17.6393 15.9066 17.6393 13.3333C17.6393 10.76 15.546 8.66663 12.9723 8.66663C10.3991 8.66663 8.3058 10.76 8.3058 13.3333Z" transform="translate(3.02734 2.66663)" fill="white"/>
</mask>
<g mask="url(#mask0)">
<path fill-rule="evenodd" clip-rule="evenodd" d="M0 0H32V32H0V0Z" fill="#939393"/>
</g>
</svg>
