<svg width="24" height="24" viewBox="0 0 24 24" fill="none" xmlns="http://www.w3.org/2000/svg">
<mask id="mask0" mask-type="alpha" maskUnits="userSpaceOnUse" x="2" y="2" width="20" height="20">
<path fill-rule="evenodd" clip-rule="evenodd" d="M0 10C0 4.47998 4.47021 0 9.99023 0C15.52 0 20 4.47998 20 10C20 15.52 15.52 20 9.99023 20C4.47021 20 0 15.52 0 10ZM6.5 9C7.32861 9 8 8.32837 8 7.5C8 6.67163 7.32861 6 6.5 6C5.67139 6 5 6.67163 5 7.5C5 8.32837 5.67139 9 6.5 9ZM13.5 9C14.3286 9 15 8.32837 15 7.5C15 6.67163 14.3286 6 13.5 6C12.6714 6 12 6.67163 12 7.5C12 8.32837 12.6714 9 13.5 9ZM10 18C5.58008 18 2 14.42 2 10C2 5.57996 5.58008 2 10 2C14.4199 2 18 5.57996 18 10C18 14.42 14.4199 18 10 18ZM6.5498 12C7.25 13.1899 8.52002 14 10 14C11.48 14 12.75 13.1899 13.4497 12H15.1201C14.3198 14.05 12.3301 15.5 10 15.5C7.66992 15.5 5.67969 14.05 4.87988 12H6.5498Z" transform="translate(2 2)" fill="white"/>
</mask>
<g mask="url(#mask0)">
<path fill-rule="evenodd" clip-rule="evenodd" d="M0 0H24V24H0V0Z" fill="#04B512"/>
</g>
</svg>
