<svg width="32" height="32" viewBox="0 0 32 32" fill="none" xmlns="http://www.w3.org/2000/svg">
<mask id="mask0" mask-type="alpha" maskUnits="userSpaceOnUse" x="5" y="1" width="22" height="29">
<path fill-rule="evenodd" clip-rule="evenodd" d="M18.6665 9.33337H17.3335V6.66663C17.3335 2.98669 14.3467 0 10.6665 0C6.98682 0 4 2.98669 4 6.66663V9.33337H2.6665C1.2002 9.33337 0 10.5333 0 12V25.3334C0 26.8 1.2002 28 2.6665 28H18.6665C20.1333 28 21.3335 26.8 21.3335 25.3334V12C21.3335 10.5333 20.1333 9.33337 18.6665 9.33337ZM10.6665 21.3334C9.2002 21.3334 8 20.1333 8 18.6666C8 17.2 9.2002 16 10.6665 16C12.1333 16 13.3335 17.2 13.3335 18.6666C13.3335 20.1333 12.1333 21.3334 10.6665 21.3334ZM6.66699 6.66663V9.33325H14.667V6.66663C14.667 4.45325 12.8804 2.66663 10.667 2.66663C8.45361 2.66663 6.66699 4.45325 6.66699 6.66663Z" transform="translate(5.33301 1.33337)" fill="white"/>
</mask>
<g mask="url(#mask0)">
<path fill-rule="evenodd" clip-rule="evenodd" d="M0 0H32V32H0V0Z" fill="#939393"/>
</g>
</svg>
