<svg width="3" height="12" viewBox="0 0 3 12" fill="none" xmlns="http://www.w3.org/2000/svg">
<path d="M9 11.688C9.408 11.688 9.762 11.838 10.062 12.138C10.362 12.438 10.512 12.792 10.512 13.2C10.512 13.608 10.362 13.962 10.062 14.262C9.762 14.562 9.408 14.712 9 14.712C8.592 14.712 8.238 14.562 7.938 14.262C7.638 13.962 7.488 13.608 7.488 13.2C7.488 12.792 7.638 12.438 7.938 12.138C8.238 11.838 8.592 11.688 9 11.688ZM9 7.188C9.408 7.188 9.762 7.338 10.062 7.638C10.362 7.938 10.512 8.292 10.512 8.7C10.512 9.108 10.362 9.462 10.062 9.762C9.762 10.062 9.408 10.212 9 10.212C8.592 10.212 8.238 10.062 7.938 9.762C7.638 9.462 7.488 9.108 7.488 8.7C7.488 8.292 7.638 7.938 7.938 7.638C8.238 7.338 8.592 7.188 9 7.188ZM9 5.712C8.592 5.712 8.238 5.562 7.938 5.262C7.638 4.962 7.488 4.608 7.488 4.2C7.488 3.792 7.638 3.438 7.938 3.138C8.238 2.838 8.592 2.688 9 2.688C9.408 2.688 9.762 2.838 10.062 3.138C10.362 3.438 10.512 3.792 10.512 4.2C10.512 4.608 10.362 4.962 10.062 5.262C9.762 5.562 9.408 5.712 9 5.712Z" transform="translate(-7.42836 -2.66665) scale(0.992063)" fill="#3987E0"/>
</svg>
