<svg width="24" height="24" viewBox="0 0 24 24" fill="none" xmlns="http://www.w3.org/2000/svg">
<mask id="mask0" mask-type="alpha" maskUnits="userSpaceOnUse" x="2" y="2" width="20" height="20">
<path fill-rule="evenodd" clip-rule="evenodd" d="M9.99023 0C4.47021 0 0 4.47998 0 10C0 15.52 4.47021 20 9.99023 20C15.52 20 20 15.52 20 10C20 4.47998 15.52 0 9.99023 0ZM8 7.5C8 8.32837 7.32861 9 6.5 9C5.67139 9 5 8.32837 5 7.5C5 6.67163 5.67139 6 6.5 6C7.32861 6 8 6.67163 8 7.5ZM13.5 9C14.3286 9 15 8.32837 15 7.5C15 6.67163 14.3286 6 13.5 6C12.6714 6 12 6.67163 12 7.5C12 8.32837 12.6714 9 13.5 9ZM7 13.5V12H13V13.5H7ZM2 10C2 14.42 5.58008 18 10 18C14.4199 18 18 14.42 18 10C18 5.57996 14.4199 2 10 2C5.58008 2 2 5.57996 2 10Z" transform="translate(2 2)" fill="white"/>
</mask>
<g mask="url(#mask0)">
<path fill-rule="evenodd" clip-rule="evenodd" d="M0 0H24V24H0V0Z" fill="#ACACAC"/>
</g>
</svg>
