<svg width="24" height="24" viewBox="0 0 24 24" fill="none" xmlns="http://www.w3.org/2000/svg">
<path d="M15.984 16.616V10.616C15.984 9.784 15.824 9.024 15.504 8.336C15.184 7.648 14.728 7.112 14.136 6.728C13.528 6.312 12.816 6.104 12 6.104C11.184 6.104 10.472 6.312 9.864 6.728C9.272 7.112 8.816 7.648 8.496 8.336C8.176 9.024 8.016 9.784 8.016 10.616V16.616H15.984ZM18 15.584L20.016 17.6V18.584H3.984V17.6L6 15.584V10.616C6 9.048 6.392 7.696 7.176 6.56C7.976 5.392 9.088 4.632 10.512 4.28V3.584C10.512 3.168 10.656 2.816 10.944 2.528C11.232 2.224 11.584 2.072 12 2.072C12.416 2.072 12.768 2.224 13.056 2.528C13.36 2.816 13.512 3.168 13.512 3.584V4.28C14.92 4.632 16.024 5.4 16.824 6.584C17.608 7.72 18 9.064 18 10.616V15.584ZM12 21.584C11.456 21.584 10.984 21.392 10.584 21.008C10.184 20.624 9.984 20.16 9.984 19.616H14.016C14.016 20.16 13.816 20.624 13.416 21.008C13.016 21.392 12.544 21.584 12 21.584Z" fill="#3987E0"/>
</svg>
