<svg width="24" height="24" viewBox="0 0 24 24" fill="none" xmlns="http://www.w3.org/2000/svg">
<mask id="mask0" mask-type="alpha" maskUnits="userSpaceOnUse" x="4" y="0" width="20" height="22">
<path fill-rule="evenodd" clip-rule="evenodd" d="M22 4C23.1045 4 24 3.10461 24 2C24 0.895386 23.1045 0 22 0C20.8955 0 20 0.895386 20 2C20 3.10461 20.8955 4 22 4ZM18 16V11C18 7.93005 16.3601 5.35999 13.5 4.68005V4C13.5 3.17004 12.8301 2.5 12 2.5C11.1699 2.5 10.5 3.17004 10.5 4V4.68005C7.62988 5.35999 6 7.92004 6 11V16L4 18V19H20V18L18 16ZM12 22C13.1001 22 14 21.1 14 20H10C10 21.1 10.8899 22 12 22Z" fill="white"/>
</mask>
<g mask="url(#mask0)">
<path fill-rule="evenodd" clip-rule="evenodd" d="M0 0H24V24H0V0Z" fill="#3987E0"/>
</g>
</svg>
