<svg width="24" height="24" viewBox="0 0 24 24" fill="none" xmlns="http://www.w3.org/2000/svg">
<mask id="mask0" mask-type="alpha" maskUnits="userSpaceOnUse" x="3" y="4" width="19" height="17">
<path fill-rule="evenodd" clip-rule="evenodd" d="M8 8C10.21 8 12 6.21001 12 4C12 1.78999 10.21 0 8 0C5.79004 0 4 1.78999 4 4C4 6.21001 5.79004 8 8 8ZM6 13L9 10.06C8.61035 10.02 8.32031 10 8 10C5.33008 10 0 11.34 0 14V16H9L6 13ZM9 13L12.4697 16.5L19 9.91L17.5996 8.5L12.4697 13.67L10.4004 11.59L9 13Z" transform="translate(3 4)" fill="white"/>
</mask>
<g mask="url(#mask0)">
<path fill-rule="evenodd" clip-rule="evenodd" d="M0 0H24V24H0V0Z" fill="#3987E0"/>
</g>
</svg>
