<svg xmlns="http://www.w3.org/2000/svg" viewBox="0 0 309.133 309.133"><path d="M30.078 172.934c23.695-34.108 37.633-56.082 47.795-72.321-39.053 3.454-76.486 52.048-76.486 52.048l25.777 25.776a26.79 26.79 0 0 1 2.914-5.503zm100.645 109.063l25.76 25.759s48.592-37.43 52.047-76.482c-16.234 10.158-38.201 24.091-72.32 47.792a26.817 26.817 0 0 1-5.487 2.931zm-39.174-13.319c-4.422 1.787-8.768 3.686-13.299 5.2-12.102 4.045-24.566 6.778-37.203 8.522-5.297.731-10.643 1.351-15.998 1.757.051-.661.1-1.323.156-1.983 1.105-12.876 3.064-25.685 6.229-38.223 1.525-6.051 3.471-11.933 5.56-17.807 1.299-3.652 2.92-7.147 4.555-10.642l-2.834-2.832c-6.303 4.234-11.785 9.584-16.437 15.637-6.887 8.963-12.049 19.117-15.658 29.817C2.743 269.613.431 281.781.071 293.911c-.051 1.704-.168 3.445.096 5.136a11.941 11.941 0 0 0 8.123 9.505c1.746.563 3.502.573 5.313.559 11.012-.092 22.195-2.005 32.736-5.137 19.279-5.728 38.742-16.504 50.15-33.532l-2.758-2.756c-.723.34-1.448.673-2.182.992zM306.004 3.149L306 3.146A10.688 10.688 0 0 0 298.234.02c-34.41.675-119.307 7.111-164.393 52.199-20.467 20.467-27.119 31.121-41.699 54.469-10.5 16.81-24.875 39.835-51.147 77.649a10.691 10.691 0 0 0 1.221 13.66l68.928 68.929a10.678 10.678 0 0 0 7.564 3.133c2.119 0 4.248-.628 6.096-1.911 37.828-26.278 60.844-40.65 77.648-51.146 23.346-14.579 34.002-21.233 54.473-41.702 45.166-45.168 51.557-130.009 52.205-164.39a10.69 10.69 0 0 0-3.126-7.761zm-79.817 130.057c-13.877 13.876-36.373 13.876-50.25 0-13.879-13.877-13.877-36.372.002-50.248 13.875-13.877 36.371-13.879 50.248-.003 13.873 13.876 13.875 36.376 0 50.251z"/></svg>